<svg viewBox = "0 0 2500 2500" width="2500" height="2500" xmlns="http://www.w3.org/2000/svg"><g transform="matrix(1 0 0 1 1250 1250)"  ><g style=""   ><g transform="matrix(1 0 0 1 437.36 -173.16)" id="Layer"  ><path style="stroke: none; stroke-width: 1; stroke-dasharray: none; stroke-linecap: butt; stroke-dashoffset: 0; stroke-linejoin: miter; stroke-miterlimit: 4; fill: rgb(255,87,87); fill-rule: nonzero; opacity: 1;"  transform=" translate(-1687.36, -1076.84)" d="M 1837.6 1217.9 C 1889.5 1128 1858.6999999999998 1013.0000000000001 1768.8 961.0000000000001 C 1678.8999999999999 909.1000000000001 1563.8999999999999 939.9000000000001 1511.9 1029.8000000000002 L 1837.6 1217.9 z" stroke-linecap="round" /></g><g transform="matrix(1 0 0 1 519.22 -469.91)" id="Layer"  ><path style="stroke: none; stroke-width: 1; stroke-dasharray: none; stroke-linecap: butt; stroke-dashoffset: 0; stroke-linejoin: miter; stroke-miterlimit: 4; fill: rgb(255,255,255); fill-rule: nonzero; opacity: 1;"  transform=" translate(-1769.22, -780.09)" d="M 1849.9 825.8 C 1849.9 825.8 1771.9 858.6999999999999 1719.7 811 C 1664.6000000000001 760.7 1695.2 725.7 1715.8 723.6 C 1776.6 717.2 1849.9 825.8 1849.9 825.8 L 1849.9 825.8 z" stroke-linecap="round" /></g><g transform="matrix(1 0 0 1 331.1 717.25)" id="Layer"  ><polygon style="stroke: none; stroke-width: 1; stroke-dasharray: none; stroke-linecap: butt; stroke-dashoffset: 0; stroke-linejoin: miter; stroke-miterlimit: 4; fill: rgb(255,87,87); fill-rule: nonzero; opacity: 1;"  points="-3.7,-2.45 -11.5,-21.95 -19.7,-48.95 34.3,-65.25 42.4,-38.25 50.2,-0.75 55.9,18.05 -20.4,55.65 -36.8,65.25 -55.9,32.35 -39.5,22.75 " /></g><g transform="matrix(1 0 0 1 321.9 687.25)" id="Layer"  ><path style="stroke: none; stroke-width: 1; stroke-dasharray: none; stroke-linecap: butt; stroke-dashoffset: 0; stroke-linejoin: miter; stroke-miterlimit: 4; fill: rgb(255,255,255); fill-rule: nonzero; opacity: 1;"  transform=" translate(-1571.9, -1937.25)" d="M 1565.7 1945 C 1570.5 1944.3 1575.1000000000001 1942.4 1579.9 1941.6 C 1583.2 1941.1 1585.5 1937.8999999999999 1585 1934.6 C 1584.5 1931.3 1581.3 1929 1578 1929.5 C 1573.3 1930.3 1568.8 1932.2 1564 1932.9 C 1560.7 1933.4 1558.3 1936.5 1558.8 1939.8000000000002 C 1559.2 1943.2 1562.4 1945.5 1565.7 1945 L 1565.7 1945 z" stroke-linecap="round" /></g><g transform="matrix(1 0 0 1 330.1 710.18)" id="Layer"  ><path style="stroke: none; stroke-width: 1; stroke-dasharray: none; stroke-linecap: butt; stroke-dashoffset: 0; stroke-linejoin: miter; stroke-miterlimit: 4; fill: rgb(255,255,255); fill-rule: nonzero; opacity: 1;"  transform=" translate(-1580.1, -1960.18)" d="M 1572.5 1966.2 C 1577.7 1966.2 1582.9 1966.5 1588 1966.3 C 1591.4 1966.2 1594 1963.3999999999999 1593.9 1960 C 1593.8000000000002 1956.6 1591 1954 1587.6000000000001 1954.1 C 1582.5000000000002 1954.3 1577.4 1953.8999999999999 1572.3000000000002 1954 C 1568.9 1954 1566.2000000000003 1956.8 1566.3000000000002 1960.2 C 1566.4 1963.5 1569.2 1966.3 1572.5 1966.2 L 1572.5 1966.2 z" stroke-linecap="round" /></g><g transform="matrix(1 0 0 1 699.8 567.15)" id="Layer"  ><polygon style="stroke: none; stroke-width: 1; stroke-dasharray: none; stroke-linecap: butt; stroke-dashoffset: 0; stroke-linejoin: miter; stroke-miterlimit: 4; fill: rgb(255,87,87); fill-rule: nonzero; opacity: 1;"  points="-6.3,-0.05 -25.6,-8.25 -50.4,-21.55 -23.8,-71.25 1,-57.95 33.1,-36.95 50.4,-27.65 23,52.85 18.1,71.25 -18.6,61.45 -13.8,43.05 " /></g><g transform="matrix(1 0 0 1 670.08 551.6)" id="Layer"  ><path style="stroke: none; stroke-width: 1; stroke-dasharray: none; stroke-linecap: butt; stroke-dashoffset: 0; stroke-linejoin: miter; stroke-miterlimit: 4; fill: rgb(255,255,255); fill-rule: nonzero; opacity: 1;"  transform=" translate(-1920.08, -1801.6)" d="M 1921.2 1811.4 C 1924.1000000000001 1807.5 1926 1802.9 1928.8 1799 C 1930.8 1796.3 1930.2 1792.4 1927.3999999999999 1790.5 C 1924.6999999999998 1788.5 1920.8 1789.1 1918.8999999999999 1791.9 C 1916.1 1795.8000000000002 1914.3 1800.3000000000002 1911.3999999999999 1804.2 C 1909.3999999999999 1806.9 1909.8999999999999 1810.7 1912.6 1812.7 C 1915.4 1814.7 1919.2 1814.1 1921.2 1811.4 L 1921.2 1811.4 z" stroke-linecap="round" /></g><g transform="matrix(1 0 0 1 692.25 561.93)" id="Layer"  ><path style="stroke: none; stroke-width: 1; stroke-dasharray: none; stroke-linecap: butt; stroke-dashoffset: 0; stroke-linejoin: miter; stroke-miterlimit: 4; fill: rgb(255,255,255); fill-rule: nonzero; opacity: 1;"  transform=" translate(-1942.25, -1811.93)" d="M 1941.1 1821.6 C 1944.6999999999998 1817.8999999999999 1948.6 1814.5 1952.1999999999998 1810.6999999999998 C 1954.4999999999998 1808.1999999999998 1954.3999999999999 1804.3999999999999 1951.8999999999999 1802.1 C 1949.3999999999999 1799.8 1945.6 1799.8999999999999 1943.3 1802.3999999999999 C 1939.8 1806.1 1936 1809.4999999999998 1932.3999999999999 1813.1 C 1929.9999999999998 1815.5 1930.1 1819.3999999999999 1932.4999999999998 1821.6999999999998 C 1934.8 1824 1938.7 1824 1941.1 1821.6 L 1941.1 1821.6 z" stroke-linecap="round" /></g><g transform="matrix(1 0 0 1 362.9 331.05)" id="Layer"  ><path style="stroke: none; stroke-width: 1; stroke-dasharray: none; stroke-linecap: butt; stroke-dashoffset: 0; stroke-linejoin: miter; stroke-miterlimit: 4; fill: rgb(127,85,224); fill-rule: nonzero; opacity: 1;"  transform=" translate(-1612.9, -1581.05)" d="M 1868.1 1705 L 1647 1578.5 L 1646.6 1575.5 L 1648.3 1574.5 L 1728.6 1447.5 L 1745.1 1419.1 L 1787.1 1358.6999999999998 L 1555.1 1273.3999999999999 L 1538.8 1279.6999999999998 L 1538.8 1279.6 L 1537.6 1280.1999999999998 L 1511.3999999999999 1290.3999999999999 L 1512.8 1292.3 L 1485.6 1305.5 L 1404.3999999999999 1348.1 C 1385.9999999999998 1357.8 1369.4999999999998 1370.3999999999999 1356.6999999999998 1386.1999999999998 C 1343.9999999999998 1401.8999999999999 1333.7999999999997 1419.7999999999997 1328.1999999999998 1439.6 C 1322.6999999999998 1459.3 1320.6 1479.6 1323.1999999999998 1499.3999999999999 C 1325.7999999999997 1519.1 1331.6999999999998 1538.3999999999999 1342.1 1555.8 L 1520.1999999999998 1853.8 L 1539.6 1888.7 L 1609.5 1850 L 1590.1 1815.1 L 1431.6 1506.1999999999998 C 1428.8 1500.7999999999997 1427.8999999999999 1494.7999999999997 1427.5 1488.8999999999999 C 1427.1 1483.1999999999998 1428.5 1477.4999999999998 1430.5 1471.8999999999999 C 1432.4 1466.4999999999998 1435.9 1461.9999999999998 1439.7 1457.8999999999999 C 1443.4 1453.8999999999999 1448.2 1451.3 1453.3 1448.9999999999998 L 1537.1 1411.6999999999998 L 1586.1999999999998 1387.8999999999999 L 1609.9999999999998 1418.9999999999998 L 1556.1999999999998 1520.7999999999997 C 1549.3999999999999 1533.6999999999998 1544.6 1547.4999999999998 1543.3999999999999 1561.6999999999998 C 1542.1999999999998 1575.7999999999997 1543.1 1590.2999999999997 1547.6999999999998 1603.9999999999998 C 1552.1999999999998 1617.5999999999997 1558.6999999999998 1630.3999999999999 1568.1 1640.8999999999999 C 1577.3999999999999 1651.3 1588.1999999999998 1660.6 1601.1 1666.6 L 1831.3999999999999 1775.3999999999999 L 1866.8 1793.8999999999999 L 1903.7 1722.9999999999998 L 1868.1 1705 z" stroke-linecap="round" /></g><g transform="matrix(1 0 0 1 376.19 -35.66)" id="Layer"  ><path style="stroke: none; stroke-width: 1; stroke-dasharray: none; stroke-linecap: butt; stroke-dashoffset: 0; stroke-linejoin: miter; stroke-miterlimit: 4; fill: rgb(255,255,255); fill-rule: nonzero; opacity: 1;"  transform=" translate(-1626.19, -1214.34)" d="M 1598.1 1169.9 L 1539.6999999999998 1230.3000000000002 C 1538.6999999999998 1231.4 1537.1999999999998 1231.8000000000002 1535.7999999999997 1231.6000000000001 C 1534.3999999999996 1231.3000000000002 1533.1999999999998 1230.4 1532.5999999999997 1229.0000000000002 L 1492.8999999999996 1135.9000000000003 C 1491.9999999999995 1133.7000000000003 1492.9999999999995 1131.1000000000004 1495.1999999999996 1130.2000000000003 C 1497.3999999999996 1129.3000000000002 1499.9999999999995 1130.3000000000002 1500.8999999999996 1132.5000000000002 L 1537.9999999999995 1219.5000000000002 L 1596.6999999999996 1158.8000000000002 C 1597.6999999999996 1157.7000000000003 1599.2999999999995 1157.2000000000003 1600.7999999999995 1157.6000000000001 C 1602.2999999999995 1157.9 1603.4999999999995 1159.0000000000002 1603.9999999999995 1160.4 L 1636.9999999999995 1252.7 L 1701.8999999999996 1187 C 1702.8999999999996 1186 1704.2999999999997 1185.5 1705.6999999999996 1185.8 C 1707.0999999999997 1186 1708.2999999999995 1186.8999999999999 1708.8999999999996 1188.2 L 1759.3999999999996 1292.6000000000001 C 1760.3999999999996 1294.8000000000002 1759.4999999999995 1297.4 1757.3999999999996 1298.4 C 1755.1999999999996 1299.4 1752.5999999999997 1298.5 1751.5999999999997 1296.4 L 1703.7999999999997 1197.5 L 1638.2999999999997 1263.8 C 1637.1999999999998 1264.8999999999999 1635.6999999999998 1265.3 1634.1999999999998 1265 C 1632.6999999999998 1264.7 1631.4999999999998 1263.6 1630.9999999999998 1262.2 L 1598.1 1169.9 z" stroke-linecap="round" /></g><g transform="matrix(1 0 0 1 -34.01 -624.45)" id="Layer"  ><path style="stroke: none; stroke-width: 1; stroke-dasharray: none; stroke-linecap: butt; stroke-dashoffset: 0; stroke-linejoin: miter; stroke-miterlimit: 4; fill: rgb(255,255,255); fill-rule: nonzero; opacity: 1;"  transform=" translate(-1215.99, -625.55)" d="M 1257 644.5 C 1243.3 625.9 1224.2 606.8 1201.9 599.3 C 1198.1000000000001 598 1190.6000000000001 596 1184.7 596.6999999999999 C 1179.5 597.4 1175.5 599.9999999999999 1174.5 605.5999999999999 C 1173.9 608.9999999999999 1174.6 612.3999999999999 1176.1 615.5999999999999 C 1178.1 619.6999999999999 1181.3999999999999 623.3999999999999 1184.3999999999999 626.1999999999999 C 1194.6 635.5999999999999 1205.6999999999998 643.8 1215.6 653.4999999999999 C 1217.1 654.8999999999999 1219.3999999999999 654.8999999999999 1220.8 653.3999999999999 C 1222.2 651.8999999999999 1222.2 649.5999999999999 1220.7 648.1999999999998 C 1210.7 638.4999999999998 1199.5 630.1999999999998 1189.3 620.7999999999998 C 1187.3 618.8999999999999 1185 616.5999999999998 1183.3999999999999 613.8999999999999 C 1182.1 611.6999999999998 1181.1999999999998 609.3999999999999 1181.6 606.8999999999999 C 1182 604.8999999999999 1183.6 604.1999999999998 1185.5 603.9999999999999 C 1190.2 603.3999999999999 1196.3 605.1999999999999 1199.4 606.1999999999999 C 1220.4 613.3 1238.1000000000001 631.3 1251 648.8 C 1252.2 650.4 1254.5 650.8 1256.2 649.5999999999999 C 1257.8 648.5 1258.2 646.2 1257 644.5 L 1257 644.5 z" stroke-linecap="round" /></g><g transform="matrix(1 0 0 1 -19.5 -577.08)" id="Layer"  ><path style="stroke: none; stroke-width: 1; stroke-dasharray: none; stroke-linecap: butt; stroke-dashoffset: 0; stroke-linejoin: miter; stroke-miterlimit: 4; fill: rgb(255,255,255); fill-rule: nonzero; opacity: 1;"  transform=" translate(-1230.5, -672.92)" d="M 1250.7 664 C 1244.5 659.7 1238.3 655.3 1231.5 652 C 1224.6 648.7 1215.9 648.1 1208.8 650.1 C 1203.7 651.6 1199.3999999999999 654.5 1197 658.6 C 1194.5 663 1193.9 668.9 1197.3 676.4 C 1200.2 682.9 1206.2 687.8 1213.5 691.1999999999999 C 1223.7 695.9 1236.4 697.4999999999999 1245.5 696.6999999999999 C 1249 696.4 1254.7 695.1999999999999 1259.1 692.8 C 1262.6999999999998 690.8 1265.3 687.9 1266 684.3 C 1266.4 682.3 1265.1 680.4 1263.1 680 C 1261.1 679.6 1259.1999999999998 680.9 1258.8 682.9 C 1258.5 684.5 1257.1 685.5 1255.5 686.3 C 1252.1 688.1999999999999 1247.6 689.0999999999999 1244.9 689.3 C 1236.9 690 1225.7 688.5999999999999 1216.7 684.5 C 1211.2 681.9 1206.4 678.4 1204.2 673.4 C 1202.1000000000001 668.6999999999999 1202 665 1203.6000000000001 662.3 C 1205.1000000000001 659.8 1207.8000000000002 658.0999999999999 1211.0000000000002 657.1999999999999 C 1216.4000000000003 655.5999999999999 1223.1000000000001 656.1999999999999 1228.5000000000002 658.6999999999999 C 1235.0000000000002 661.8 1240.8000000000002 665.9 1246.6000000000001 669.9999999999999 C 1248.3000000000002 671.1999999999999 1250.6000000000001 670.7999999999998 1251.7 669.0999999999999 C 1252.8 667.5 1252.4 665.2 1250.7 664 L 1250.7 664 z" stroke-linecap="round" /></g><g transform="matrix(1 0 0 1 -28.95 -546.17)" id="Layer"  ><path style="stroke: none; stroke-width: 1; stroke-dasharray: none; stroke-linecap: butt; stroke-dashoffset: 0; stroke-linejoin: miter; stroke-miterlimit: 4; fill: rgb(255,255,255); fill-rule: nonzero; opacity: 1;"  transform=" translate(-1221.05, -703.83)" d="M 1205.2 683.2 C 1202.2 684.6 1199 686 1196.5 688 C 1187.4 695.2 1190.1 708.4 1197.5 715.5 C 1203.4 721.1 1219.5 726 1232.4 724.5 C 1242 723.4 1249.6000000000001 718.9 1251.3000000000002 710.1 C 1251.7000000000003 708.1 1250.4 706.2 1248.4 705.8000000000001 C 1246.4 705.4000000000001 1244.5 706.7 1244.1000000000001 708.7 C 1243.0000000000002 714.3000000000001 1237.7 716.5 1231.6000000000001 717.2 C 1221.0000000000002 718.4000000000001 1207.6000000000001 714.9000000000001 1202.7 710.2 C 1198.3 706 1195.7 698.2 1201.2 693.9000000000001 C 1203.3 692.2 1206 691.1000000000001 1208.4 690.0000000000001 C 1210.3000000000002 689.2000000000002 1211.1000000000001 687.0000000000001 1210.2 685.1000000000001 C 1209.3 683.2 1207.1 682.4 1205.2 683.2 L 1205.2 683.2 z" stroke-linecap="round" /></g><g transform="matrix(1 0 0 1 136.03 -381.15)" id="Layer"  ><path style="stroke: none; stroke-width: 1; stroke-dasharray: none; stroke-linecap: butt; stroke-dashoffset: 0; stroke-linejoin: miter; stroke-miterlimit: 4; fill: rgb(255,255,255); fill-rule: nonzero; opacity: 1;"  transform=" translate(-1386.03, -868.85)" d="M 1266.2 756.4 C 1335.8 838.3 1419.2 915.7 1500.8 986.4 C 1502.3 987.6999999999999 1504.6 987.5 1505.8999999999999 986 C 1507.1999999999998 984.5 1506.9999999999998 982.2 1505.4999999999998 980.9 C 1424.1999999999998 910.5 1341.0999999999997 833.4 1271.6999999999998 751.7 C 1270.3999999999999 750.2 1268.1 750 1266.6 751.3000000000001 C 1265 752.6 1264.9 754.9 1266.2 756.4 L 1266.2 756.4 z" stroke-linecap="round" /></g><g transform="matrix(1 0 0 1 161.73 -472.02)" id="Layer"  ><path style="stroke: none; stroke-width: 1; stroke-dasharray: none; stroke-linecap: butt; stroke-dashoffset: 0; stroke-linejoin: miter; stroke-miterlimit: 4; fill: rgb(255,255,255); fill-rule: nonzero; opacity: 1;"  transform=" translate(-1411.73, -777.98)" d="M 1251.4 649 C 1350.6000000000001 724.8 1466.4 818.9 1567.4 912.5 C 1568.9 913.9 1571.2 913.8 1572.5 912.3 C 1573.9 910.8 1573.8 908.5 1572.3 907.1999999999999 C 1471.2 813.4 1355.1 719.0999999999999 1255.8 643.1999999999999 C 1254.2 641.9999999999999 1251.8999999999999 642.3 1250.7 643.9 C 1249.5 645.5 1249.8 647.8 1251.4 649 L 1251.4 649 z" stroke-linecap="round" /></g><g transform="matrix(1 0 0 1 -24.89 -519.43)" id="Layer"  ><path style="stroke: none; stroke-width: 1; stroke-dasharray: none; stroke-linecap: butt; stroke-dashoffset: 0; stroke-linejoin: miter; stroke-miterlimit: 4; fill: rgb(255,255,255); fill-rule: nonzero; opacity: 1;"  transform=" translate(-1225.11, -730.57)" d="M 1204.9 714.8 C 1202.9 716.3 1201.1000000000001 718.5999999999999 1200.4 721 C 1197.2 732.2 1205.2 741.2 1214.9 745 C 1223.1000000000001 748.3 1234 747.6 1241.3000000000002 742.8 C 1244.5000000000002 740.6999999999999 1246.7000000000003 737.9 1249.4 735.4 C 1250.9 734 1250.9 731.6999999999999 1249.5 730.1999999999999 C 1248.1 728.6999999999999 1245.8 728.6999999999999 1244.3 730.0999999999999 C 1241.8999999999999 732.3 1240.1 734.8999999999999 1237.3 736.6999999999999 C 1231.8 740.3 1223.8 740.6999999999999 1217.6 738.1999999999999 C 1211.3 735.6999999999999 1205.3999999999999 730.3 1207.5 723.0999999999999 C 1207.8 722.1999999999999 1208.5 721.3999999999999 1209.3 720.8 C 1211 719.5999999999999 1211.3 717.3 1210.1 715.5999999999999 C 1208.9 714 1206.5 713.6 1204.9 714.8 L 1204.9 714.8 z" stroke-linecap="round" /></g><g transform="matrix(1 0 0 1 519.19 -392.97)" id="Layer"  ><path style="stroke: none; stroke-width: 1; stroke-dasharray: none; stroke-linecap: butt; stroke-dashoffset: 0; stroke-linejoin: miter; stroke-miterlimit: 4; fill: rgb(255,255,255); fill-rule: nonzero; opacity: 1;"  transform=" translate(-1769.19, -857.03)" d="M 1724 804.8 C 1699.1 832 1694.6 857.5999999999999 1702 876.5999999999999 C 1709.5 895.8999999999999 1729.4 908.8999999999999 1754.4 910.3999999999999 C 1762.8000000000002 910.8999999999999 1771.8000000000002 908.7999999999998 1779.7 906.0999999999999 C 1798.2 899.8 1809.8 887.8999999999999 1818.5 873.4999999999999 C 1826.9 859.6999999999999 1832.6 843.3999999999999 1839.3 827.8999999999999 C 1840.1 825.9999999999999 1839.3 823.7999999999998 1837.3999999999999 822.9999999999999 C 1835.4999999999998 822.1999999999999 1833.3 822.9999999999999 1832.4999999999998 824.8999999999999 C 1825.8999999999999 840.1999999999998 1820.2999999999997 856.0999999999999 1812.0999999999997 869.6999999999998 C 1804.1999999999996 882.6999999999998 1793.7999999999997 893.4999999999998 1777.1999999999996 899.0999999999998 C 1770.1999999999996 901.4999999999998 1762.1999999999996 903.4999999999998 1754.7999999999995 902.9999999999998 C 1732.9999999999995 901.6999999999998 1715.3999999999994 890.6999999999998 1708.7999999999995 873.8999999999997 C 1702.0999999999995 856.7999999999997 1706.9999999999995 834.0999999999998 1729.3999999999994 809.6999999999997 C 1730.7999999999995 808.1999999999997 1730.6999999999994 805.8999999999997 1729.1999999999994 804.4999999999997 C 1727.7 803.2 1725.3 803.3 1724 804.8 L 1724 804.8 z" stroke-linecap="round" /></g><g transform="matrix(1 0 0 1 561.75 -487.5)" id="Layer"  ><path style="stroke: none; stroke-width: 1; stroke-dasharray: none; stroke-linecap: butt; stroke-dashoffset: 0; stroke-linejoin: miter; stroke-miterlimit: 4; fill: rgb(255,255,255); fill-rule: nonzero; opacity: 1;"  transform=" translate(-1811.75, -762.5)" d="M 1851.6 825.8 C 1851.6 825.8 1797.3999999999999 777.5999999999999 1782.1999999999998 760.6999999999999 C 1737.1 710.4999999999999 1823.1 665.6999999999999 1846.1999999999998 734.0999999999999 C 1859 772 1852.9 801.8 1851.6 825.8 L 1851.6 825.8 z" stroke-linecap="round" /></g><g transform="matrix(1 0 0 1 599.86 -424.25)" id="Layer"  ><path style="stroke: none; stroke-width: 1; stroke-dasharray: none; stroke-linecap: butt; stroke-dashoffset: 0; stroke-linejoin: miter; stroke-miterlimit: 4; fill: rgb(255,255,255); fill-rule: nonzero; opacity: 1;"  transform=" translate(-1849.86, -825.75)" d="M 1814.1 868.7 C 1839.8 855.2 1871.5 835.3000000000001 1883.1999999999998 808.7 C 1888.9999999999998 795.6 1884.7999999999997 776.7 1866.3999999999999 784.7 C 1851.9999999999998 791 1844.6 804.8000000000001 1837.8 817.6 C 1830.6 831.3 1814.1 868.7 1814.1 868.7 L 1814.1 868.7 z" stroke-linecap="round" /></g><g transform="matrix(1 0 0 1 637.46 -56.6)" id="Layer"  ><path style="stroke: none; stroke-width: 1; stroke-dasharray: none; stroke-linecap: butt; stroke-dashoffset: 0; stroke-linejoin: miter; stroke-miterlimit: 4; fill: rgb(255,255,255); fill-rule: nonzero; opacity: 1;"  transform=" translate(-1887.46, -1193.4)" d="M 1951 1375.4 C 1991.6 1322.1000000000001 2006.3 1244.5 1993.9 1178 C 1980.2 1104.6 1932.3000000000002 1036.4 1862.6000000000001 1013.6 C 1829.4 1002.7 1793.7 1016.2 1780.9 1048.8 C 1768.1000000000001 1081.3 1786.4 1112.8999999999999 1815.6000000000001 1131.7 C 1860.1000000000001 1160.4 1882.6000000000001 1172.7 1896.9 1209.8 C 1913.1000000000001 1251.8 1916.2 1300 1896.1000000000001 1339.8999999999999 C 1895.2 1341.6999999999998 1895.9 1343.9999999999998 1897.8000000000002 1344.8999999999999 C 1899.7000000000003 1345.8 1901.9 1345.1 1902.8000000000002 1343.1999999999998 C 1923.8000000000002 1301.3999999999999 1920.8000000000002 1250.9999999999998 1903.9 1206.9999999999998 C 1889 1168.2999999999997 1866 1155.0999999999997 1819.7 1125.2999999999997 C 1793.6000000000001 1108.4999999999998 1776.5 1080.4999999999998 1787.9 1051.4999999999998 C 1799.2 1022.6999999999998 1830.9 1011.0999999999998 1860.3000000000002 1020.6999999999998 C 1927.5000000000002 1042.6999999999998 1973.4 1108.6999999999998 1986.6000000000001 1179.2999999999997 C 1998.7 1243.7999999999997 1984.5000000000002 1319.0999999999997 1945.1000000000001 1370.7999999999997 C 1943.8000000000002 1372.3999999999996 1944.2 1374.7999999999997 1945.8000000000002 1376.0999999999997 C 1947.4 1377.4 1949.7 1377.1 1951 1375.4 L 1951 1375.4 z" stroke-linecap="round" /></g><g transform="matrix(1 0 0 1 639.37 165.31)" id="Layer"  ><path style="stroke: none; stroke-width: 1; stroke-dasharray: none; stroke-linecap: butt; stroke-dashoffset: 0; stroke-linejoin: miter; stroke-miterlimit: 4; fill: rgb(255,255,255); fill-rule: nonzero; opacity: 1;"  transform=" translate(-1889.37, -1415.31)" d="M 1868.4 1388.6 C 1863.7 1388.3 1858.7 1388 1854 1387.1 C 1846.5 1385.8 1839.4 1383.1999999999998 1833.8 1377.5 C 1825.1 1368.6 1828.8 1352.9 1839 1347.3 C 1845 1344 1853 1344.3999999999999 1859.4 1345.3 C 1869.4 1346.6 1880.1000000000001 1349 1889.6000000000001 1352.2 C 1891.6000000000001 1352.9 1892.6000000000001 1355 1892.0000000000002 1357 C 1891.3000000000002 1359 1889.2000000000003 1360 1887.2000000000003 1359.4 C 1878.1000000000004 1356.3000000000002 1867.9000000000003 1354.1000000000001 1858.4000000000003 1352.8000000000002 C 1853.5000000000002 1352.2000000000003 1847.2000000000003 1351.4 1842.6000000000004 1354.0000000000002 C 1836.4000000000003 1357.4000000000003 1833.8000000000004 1366.9000000000003 1839.1000000000004 1372.4000000000003 C 1843.5000000000005 1376.9000000000003 1849.2000000000003 1378.8000000000004 1855.2000000000003 1379.9000000000003 C 1861.9000000000003 1381.1000000000004 1868.9000000000003 1381.1000000000004 1875.2000000000003 1381.8000000000004 C 1876.7000000000003 1382.0000000000005 1877.5000000000002 1382.7000000000005 1878.0000000000002 1383.4000000000003 C 1878.5000000000002 1384.1000000000004 1878.8000000000002 1384.9000000000003 1878.8000000000002 1385.9000000000003 C 1878.8000000000002 1386.5000000000002 1878.6000000000001 1387.3000000000004 1878.1000000000001 1388.1000000000004 C 1877.7 1388.7000000000003 1876.8000000000002 1389.6000000000004 1876.5000000000002 1390.1000000000004 C 1875.8000000000002 1391.1000000000004 1875.2000000000003 1392.1000000000004 1874.5000000000002 1393.1000000000004 C 1872.2000000000003 1396.4000000000003 1869.7000000000003 1399.5000000000005 1867.0000000000002 1402.4000000000003 C 1865.1000000000001 1404.5000000000002 1863.2000000000003 1406.5000000000002 1861.3000000000002 1408.6000000000004 C 1857.4 1412.9000000000003 1851.0000000000002 1420.5000000000005 1848.2000000000003 1428.3000000000004 C 1846.7000000000003 1432.5000000000005 1846.2000000000003 1436.8000000000004 1848.8000000000002 1440.2000000000005 C 1849.6000000000001 1441.2000000000005 1850.9 1441.5000000000005 1852.2000000000003 1441.6000000000006 C 1854.1000000000004 1441.7000000000005 1856.0000000000002 1441.4000000000005 1857.5000000000002 1440.8000000000006 C 1861.8000000000002 1439.2000000000007 1865.6000000000001 1436.0000000000007 1869.2000000000003 1432.3000000000006 C 1873.2000000000003 1428.3000000000006 1876.9000000000003 1423.9000000000005 1880.4000000000003 1420.3000000000006 C 1882.7000000000003 1418.0000000000007 1884.9000000000003 1415.4000000000005 1887.1000000000004 1413.0000000000007 C 1887.2000000000003 1412.8000000000006 1888.8000000000004 1411.0000000000007 1889.2000000000003 1410.7000000000007 C 1891.0000000000002 1409.2000000000007 1892.7000000000003 1409.8000000000006 1893.2000000000003 1410.0000000000007 C 1894.2000000000003 1410.4000000000008 1894.8000000000002 1411.1000000000006 1895.2000000000003 1411.7000000000007 C 1895.8000000000002 1412.6000000000008 1896.0000000000002 1413.6000000000008 1895.8000000000002 1414.7000000000007 C 1895.7000000000003 1415.5000000000007 1895.2000000000003 1416.6000000000008 1894.1000000000001 1417.6000000000008 C 1893.4 1418.3000000000009 1892.2 1419.1000000000008 1891.7 1419.8000000000009 C 1889.8 1422.500000000001 1888 1425.500000000001 1886.3 1428.4000000000008 C 1883.6 1433.1000000000008 1880.2 1438.3000000000009 1878.2 1443.7000000000007 C 1876.5 1448.3000000000006 1876 1453.1000000000008 1878.6000000000001 1457.9000000000008 C 1879.2 1459.0000000000007 1880.2 1459.3000000000009 1881.3000000000002 1459.2000000000007 C 1882.5000000000002 1459.1000000000008 1883.8000000000002 1458.7000000000007 1885.0000000000002 1458.3000000000006 C 1892.2000000000003 1455.4000000000005 1896.7000000000003 1447.3000000000006 1900.9000000000003 1441.0000000000007 C 1902.7000000000003 1438.3000000000006 1904.6000000000004 1435.6000000000006 1906.0000000000002 1432.7000000000007 C 1906.6000000000001 1431.6000000000008 1907.0000000000002 1430.4000000000008 1907.6000000000001 1429.3000000000006 C 1907.9 1428.7000000000007 1908.7 1427.1000000000006 1908.9 1426.9000000000005 C 1910.6000000000001 1424.7000000000005 1912.7 1425.4000000000005 1913.4 1425.7000000000005 C 1913.7 1425.8000000000004 1916.5 1427.0000000000005 1915.5 1430.3000000000004 C 1913.2 1438.0000000000005 1909.1 1446.8000000000004 1907.3 1455.4000000000003 C 1905.8 1462.9000000000003 1906.2 1470.3000000000004 1912.3999999999999 1476.5000000000002 C 1915.3999999999999 1479.5000000000002 1918.9999999999998 1478.3000000000002 1922.1999999999998 1476.1000000000001 C 1926.3999999999999 1473.2 1930.1999999999998 1468.5000000000002 1932.1 1464.9 C 1941.3 1447.8000000000002 1945.5 1426.1000000000001 1939.3 1407.3000000000002 C 1938.3999999999999 1404.6000000000001 1937.3 1400.2000000000003 1935.7 1396.5000000000002 C 1934.9 1394.7000000000003 1934 1393.0000000000002 1932.8 1392.2000000000003 C 1931.1 1391.0000000000002 1930.6 1388.7000000000003 1931.8 1387.0000000000002 C 1933 1385.3000000000002 1935.3 1384.8000000000002 1937 1386.0000000000002 C 1939.2 1387.5000000000002 1941.1 1390.2000000000003 1942.6 1393.5000000000002 C 1944.3 1397.4000000000003 1945.5 1402.0000000000002 1946.5 1405.0000000000002 C 1953.4 1425.7000000000003 1948.9 1449.6000000000001 1938.8 1468.5000000000002 C 1935.8999999999999 1473.9000000000003 1929.7 1481.3000000000002 1923 1484.4000000000003 C 1917.6 1486.8000000000004 1912 1486.7000000000003 1907.2 1482.0000000000002 C 1899.3 1474.3000000000002 1898.1000000000001 1465.1000000000001 1899.7 1455.8000000000002 C 1896.3 1459.9 1892.5 1463.5000000000002 1887.8 1465.4 C 1882.2 1467.6000000000001 1875.6 1467.9 1872.1 1461.7 C 1868.3 1454.9 1868.8 1448 1871.1999999999998 1441.3 C 1871.2999999999997 1441 1871.3999999999999 1440.7 1871.4999999999998 1440.3999999999999 C 1867.8999999999999 1443.6 1864.0999999999997 1446.3999999999999 1859.9999999999998 1447.8999999999999 C 1857.0999999999997 1448.9999999999998 1853.0999999999997 1449.6 1849.5999999999997 1448.8999999999999 C 1846.7999999999997 1448.3999999999999 1844.2999999999997 1446.9999999999998 1842.5999999999997 1444.8 C 1838.3999999999996 1439.3 1838.3999999999996 1432.6 1840.7999999999997 1425.8 C 1843.8999999999996 1417.1 1850.9999999999998 1408.3999999999999 1855.3999999999996 1403.6 C 1857.2999999999997 1401.5 1859.1999999999996 1399.5 1861.0999999999997 1397.3999999999999 C 1863.8 1394.5 1866.2 1391.6 1868.4 1388.6 L 1868.4 1388.6 z" stroke-linecap="round" /></g><g transform="matrix(1 0 0 1 496.34 366.79)" id="Layer"  ><path style="stroke: none; stroke-width: 1; stroke-dasharray: none; stroke-linecap: butt; stroke-dashoffset: 0; stroke-linejoin: miter; stroke-miterlimit: 4; fill: rgb(255,255,255); fill-rule: nonzero; opacity: 1;"  transform=" translate(-1746.34, -1616.79)" d="M 2101.9 972.2 C 2362.6 1025 2443 1187.8 2430.8 1312.6 C 2419 1432.8999999999999 2325 1509.1 2226.2000000000003 1567 C 2107.4 1636.5 1956.3000000000002 1641.3 1822.5000000000002 1658.6 C 1569.4000000000003 1691.3999999999999 1252.9 1761.3999999999999 1087.1000000000004 1970 C 1046.9000000000003 2020.5 1043.4000000000003 2085.7 1071.3000000000004 2142.4 C 1097.2000000000005 2194.9 1150.1000000000004 2240.1 1226.0000000000005 2259.1 C 1338.7000000000005 2287.2999999999997 1502.3000000000004 2257.7 1702.4000000000005 2106.9 C 1704.1000000000006 2105.6 1704.4000000000005 2103.3 1703.1000000000006 2101.6 C 1701.8000000000006 2099.9 1699.5000000000007 2099.6 1697.8000000000006 2100.9 C 1500.3000000000006 2249.7000000000003 1338.9000000000005 2279.6 1227.7000000000007 2251.8 C 1154.3000000000006 2233.4 1103.0000000000007 2189.9 1078.0000000000007 2139.1000000000004 C 1051.4000000000008 2085.1000000000004 1054.6000000000006 2022.9000000000003 1092.9000000000008 1974.8000000000004 C 1257.5000000000007 1767.7000000000005 1572.1000000000008 1698.8000000000004 1823.4000000000008 1666.2000000000003 C 1958.2000000000007 1648.7000000000003 2110.3000000000006 1643.6000000000004 2230.000000000001 1573.6000000000004 C 2331.000000000001 1514.5000000000005 2426.300000000001 1436.3000000000004 2438.300000000001 1313.5000000000005 C 2450.800000000001 1186.1000000000004 2369.6000000000013 1018.9000000000004 2103.400000000001 965.0000000000005 C 2101.400000000001 964.6000000000005 2099.400000000001 965.9000000000004 2098.900000000001 968.0000000000005 C 2098.5 969.7 2099.8 971.7 2101.9 972.2 L 2101.9 972.2 z" stroke-linecap="round" /></g><g transform="matrix(1 0 0 1 387 -711.2)" id="Layer"  ><polygon style="stroke: none; stroke-width: 1; stroke-dasharray: none; stroke-linecap: butt; stroke-dashoffset: 0; stroke-linejoin: miter; stroke-miterlimit: 4; fill: rgb(255,199,0); fill-rule: nonzero; opacity: 1;"  points="-51.3,-51.3 51.3,-31.9 -31.8,51.3 " /></g><g transform="matrix(1 0 0 1 938.5 944.5)" id="Layer"  ><path style="stroke: none; stroke-width: 1; stroke-dasharray: none; stroke-linecap: butt; stroke-dashoffset: 0; stroke-linejoin: miter; stroke-miterlimit: 4; fill: rgb(255,255,255); fill-rule: nonzero; opacity: 1;"  transform=" translate(-2188.5, -2194.5)" d="M 2243.4 2245.9 C 2244.9 2245.9 2246.2000000000003 2245.1 2247 2243.9 C 2247.7 2242.6 2247.7 2241.1 2247 2239.8 L 2191.1 2145.1000000000004 C 2190.4 2143.9000000000005 2189 2143.1000000000004 2187.6 2143.1000000000004 C 2186.2 2143.1000000000004 2184.7999999999997 2143.9000000000005 2184.1 2145.1000000000004 L 2130 2238.4000000000005 C 2129.3 2239.7000000000007 2129.3 2241.2000000000007 2130 2242.5000000000005 C 2130.7 2243.8000000000006 2132 2244.5000000000005 2133.5 2244.6000000000004 L 2243.4 2245.9 z M 2140.5 2236.5 L 2236.2 2237.7 L 2187.6 2155.2999999999997 L 2140.5 2236.5 z" stroke-linecap="round" /></g><g transform="matrix(1 0 0 1 -371.7 -660)" id="Layer"  ><path style="stroke: none; stroke-width: 1; stroke-dasharray: none; stroke-linecap: butt; stroke-dashoffset: 0; stroke-linejoin: miter; stroke-miterlimit: 4; fill: rgb(255,255,255); fill-rule: nonzero; opacity: 1;"  transform=" translate(-878.3, -590)" d="M 878.3 559.1 C 861.1999999999999 559.1 847.4 573 847.4 590 C 847.4 607.1 861.3 620.9 878.3 620.9 C 895.4 620.9 909.1999999999999 607 909.1999999999999 590 C 909.2 573 895.3 559.1 878.3 559.1 L 878.3 559.1 z M 878.3 566.7 C 891.1999999999999 566.7 901.6999999999999 577.2 901.6999999999999 590.1 C 901.6999999999999 603 891.1999999999999 613.5 878.3 613.5 C 865.4 613.5 854.9 603 854.9 590.1 C 854.9 577.2 865.4 566.7 878.3 566.7 L 878.3 566.7 z" stroke-linecap="round" /></g><g transform="matrix(1 0 0 1 80.1 869.3)" id="Layer"  ><path style="stroke: none; stroke-width: 1; stroke-dasharray: none; stroke-linecap: butt; stroke-dashoffset: 0; stroke-linejoin: miter; stroke-miterlimit: 4; fill: rgb(255,255,255); fill-rule: nonzero; opacity: 1;"  transform=" translate(-1330.1, -2119.3)" d="M 1330.1 2092.1 C 1345.1 2092.1 1357.3 2104.2999999999997 1357.3 2119.2999999999997 C 1357.3 2134.2999999999997 1345.1 2146.4999999999995 1330.1 2146.4999999999995 C 1315.1 2146.4999999999995 1302.8999999999999 2134.2999999999997 1302.8999999999999 2119.2999999999997 C 1303 2104.3 1315.1 2092.1 1330.1 2092.1 L 1330.1 2092.1 z" stroke-linecap="round" /></g><g transform="matrix(1 0 0 1 -7 -69.1)" id="Layer"  ><path style="stroke: none; stroke-width: 1; stroke-dasharray: none; stroke-linecap: butt; stroke-dashoffset: 0; stroke-linejoin: miter; stroke-miterlimit: 4; fill: rgb(255,255,255); fill-rule: nonzero; opacity: 1;"  transform=" translate(-1243, -1180.9)" d="M 1243 1153.7 C 1258 1153.7 1270.2 1165.9 1270.2 1180.9 C 1270.2 1195.9 1258 1208.1000000000001 1243 1208.1000000000001 C 1228 1208.1000000000001 1215.8 1195.9 1215.8 1180.9 C 1215.8 1165.8 1228 1153.7 1243 1153.7 L 1243 1153.7 z" stroke-linecap="round" /></g><g transform="matrix(1 0 0 1 940.2 71.6)" id="Layer"  ><path style="stroke: none; stroke-width: 1; stroke-dasharray: none; stroke-linecap: butt; stroke-dashoffset: 0; stroke-linejoin: miter; stroke-miterlimit: 4; fill: rgb(255,255,255); fill-rule: nonzero; opacity: 1;"  transform=" translate(-2190.2, -1321.6)" d="M 2190.2 1290.7 C 2173.1 1290.7 2159.2999999999997 1304.6000000000001 2159.2999999999997 1321.6000000000001 C 2159.2999999999997 1338.7 2173.2 1352.5000000000002 2190.2 1352.5000000000002 C 2207.2999999999997 1352.5000000000002 2221.1 1338.6000000000001 2221.1 1321.6000000000001 C 2221.1 1304.6 2207.3 1290.7 2190.2 1290.7 L 2190.2 1290.7 z M 2190.2 1298.2 C 2203.1 1298.2 2213.6 1308.7 2213.6 1321.6000000000001 C 2213.6 1334.5000000000002 2203.1 1345.0000000000002 2190.2 1345.0000000000002 C 2177.2999999999997 1345.0000000000002 2166.7999999999997 1334.5000000000002 2166.7999999999997 1321.6000000000001 C 2166.8 1308.7 2177.3 1298.2 2190.2 1298.2 L 2190.2 1298.2 z" stroke-linecap="round" /></g><g transform="matrix(-0.69 -0.16 -0.17 0.75 -297.45 -255.73)" id="Layer"  ><path style="stroke: none; stroke-width: 1; stroke-dasharray: none; stroke-linecap: butt; stroke-dashoffset: 0; stroke-linejoin: miter; stroke-miterlimit: 4; fill: rgb(255,255,255); fill-rule: nonzero; opacity: 1;"  transform=" translate(-130.7, -805.25)" d="M 209.2 688.1 C 209.2 683.3000000000001 207.1 678.7 203.39999999999998 675.3000000000001 C 199.7 671.9000000000001 194.7 670.0000000000001 189.49999999999997 670.0000000000001 C 159.29999999999998 670.0000000000001 101.99999999999997 670.0000000000001 71.89999999999998 670.0000000000001 C 66.69999999999997 670.0000000000001 61.699999999999974 671.9000000000001 57.99999999999998 675.3000000000001 C 54.299999999999976 678.7 52.19999999999998 683.3000000000001 52.19999999999998 688.1 C 52.19999999999998 737.4 52.19999999999998 873.1 52.19999999999998 922.4000000000001 C 52.19999999999998 927.2 54.29999999999998 931.8000000000001 57.99999999999998 935.2 C 61.69999999999998 938.6 66.69999999999997 940.5 71.89999999999998 940.5 C 102.09999999999998 940.5 159.29999999999998 940.5 189.49999999999997 940.5 C 194.69999999999996 940.5 199.69999999999996 938.6 203.39999999999998 935.2 C 207.09999999999997 931.8000000000001 209.2 927.2 209.2 922.4000000000001 C 209.2 873.1 209.2 737.3 209.2 688.1 z" stroke-linecap="round" /></g><g transform="matrix(-0.23 -0.05 -0.03 0.13 -300.63 -326.91)" id="Layer"  ><path style="stroke: none; stroke-width: 1; stroke-dasharray: none; stroke-linecap: butt; stroke-dashoffset: 0; stroke-linejoin: miter; stroke-miterlimit: 4; fill: rgb(255,255,255); fill-rule: nonzero; opacity: 1;"  transform=" translate(1721.75, -3994.4)" d="M -1643.2 3923.4 C -1643.2 3906.3 -1647.2 3890 -1654.2 3877.9 C -1661.2 3865.8 -1670.8 3859.1 -1680.8 3859.1 C -1705.6 3859.1 -1737.8999999999999 3859.1 -1762.7 3859.1 C -1772.7 3859.1 -1782.2 3865.9 -1789.3 3877.9 C -1796.3 3890 -1800.3 3906.3 -1800.3 3923.4 C -1800.3 3966.3 -1800.3 4022.5 -1800.3 4065.4 C -1800.3 4082.4 -1796.3 4098.8 -1789.3 4110.9 C -1782.3 4123 -1772.7 4129.7 -1762.7 4129.7 C -1737.9 4129.7 -1705.6000000000001 4129.7 -1680.8 4129.7 C -1670.8 4129.7 -1661.3 4122.9 -1654.2 4110.9 C -1647.2 4098.799999999999 -1643.2 4082.4999999999995 -1643.2 4065.3999999999996 C -1643.2 4022.5 -1643.2 3966.3 -1643.2 3923.4 z" stroke-linecap="round" /></g><g transform="matrix(-0.16 -0.04 -0.02 0.09 -311.92 -273.75)" id="Layer"  ><path style="stroke: none; stroke-width: 1; stroke-dasharray: none; stroke-linecap: butt; stroke-dashoffset: 0; stroke-linejoin: miter; stroke-miterlimit: 4; fill: rgb(255,255,255); fill-rule: nonzero; opacity: 1;"  transform=" translate(2820.85, -5909.95)" d="M -2718 5834.6 C -2718 5879.400000000001 -2718 5940.400000000001 -2718 5985.3 C -2718 6012.2 -2724.2 6038 -2735.4 6057.1 C -2746.5 6076.1 -2761.6 6086.8 -2777.4 6086.8 C -2803.3 6086.8 -2838.4 6086.8 -2864.3 6086.8 C -2880 6086.8 -2895.1000000000004 6076.1 -2906.3 6057.1 C -2917.4 6038.1 -2923.7000000000003 6012.200000000001 -2923.7000000000003 5985.3 C -2923.7000000000003 5940.5 -2923.7000000000003 5879.5 -2923.7000000000003 5834.6 C -2923.7000000000003 5807.700000000001 -2917.4 5781.900000000001 -2906.3 5762.8 C -2895.1000000000004 5743.8 -2880.1000000000004 5733.1 -2864.3 5733.1 C -2838.4 5733.1 -2803.3 5733.1 -2777.4 5733.1 C -2761.7000000000003 5733.1 -2746.5 5743.8 -2735.4 5762.8 C -2724.3 5781.8 -2718 5807.6 -2718 5834.6 L -2718 5834.6 z M -2766.6 5834.6 C -2766.6 5829.700000000001 -2767.7 5825 -2769.7 5821.6 C -2771.7 5818.1 -2774.5 5816.200000000001 -2777.2999999999997 5816.200000000001 C -2803.2 5816.200000000001 -2838.2999999999997 5816.200000000001 -2864.2 5816.200000000001 C -2867 5816.200000000001 -2869.7999999999997 5818.1 -2871.7999999999997 5821.6 C -2873.7999999999997 5825.1 -2874.8999999999996 5829.700000000001 -2874.8999999999996 5834.6 C -2874.8999999999996 5879.400000000001 -2874.8999999999996 5940.400000000001 -2874.8999999999996 5985.3 C -2874.8999999999996 5990.2 -2873.7999999999997 5994.900000000001 -2871.7999999999997 5998.3 C -2869.7999999999997 6001.7 -2866.9999999999995 6003.7 -2864.2 6003.7 C -2838.2999999999997 6003.7 -2803.2 6003.7 -2777.2999999999997 6003.7 C -2774.3999999999996 6003.7 -2771.7 6001.8 -2769.7 5998.3 C -2767.7 5994.8 -2766.6 5990.2 -2766.6 5985.3 L -2766.6 5834.6 z" stroke-linecap="round" /></g><g transform="matrix(-0.3 0.02 0.02 0.33 -765.33 778.51)" id="Layer"  ><path style="stroke: none; stroke-width: 1; stroke-dasharray: none; stroke-linecap: butt; stroke-dashoffset: 0; stroke-linejoin: miter; stroke-miterlimit: 4; fill: rgb(255,199,0); fill-rule: nonzero; opacity: 1;"  transform=" translate(-94.3, -5273.9)" d="M 94.7 5262.6 L -40.10000000000001 5315.900000000001 L -107.50000000000001 5335.900000000001 L -63.500000000000014 5458.3 L 3.8999999999999915 5438.3 L 226.7 5392.7 L 296.1 5372.099999999999 L 291.5 5184.499999999999 L 282.8 5089.499999999999 L 73.60000000000002 5105.399999999999 L 82.30000000000003 5200.399999999999 L 94.7 5262.6 z" stroke-linecap="round" /></g><g transform="matrix(-0.56 0.04 0.04 0.56 -769.96 746.59)" id="Layer"  ><path style="stroke: none; stroke-width: 1; stroke-dasharray: none; stroke-linecap: butt; stroke-dashoffset: 0; stroke-linejoin: miter; stroke-miterlimit: 4; fill: rgb(255,255,255); fill-rule: nonzero; opacity: 1;"  transform=" translate(-266.09, -3683.02)" d="M 253.3 3671.1 C 262.3 3671.7 271.3 3669.9 280.3 3670.4 C 287.1 3670.7000000000003 292.3 3676.5 291.90000000000003 3683.3 C 291.6 3690.1000000000004 285.8 3695.3 279.00000000000006 3694.9 C 269.90000000000003 3694.4 260.80000000000007 3696.2000000000003 251.70000000000005 3695.6 C 245.00000000000006 3695.1 239.80000000000004 3689.2999999999997 240.30000000000004 3682.6 C 240.7 3675.8 246.5 3670.6 253.3 3671.1 z" stroke-linecap="round" /></g><g transform="matrix(-0.56 0.04 0.04 0.56 -771.83 771.96)" id="Layer"  ><path style="stroke: none; stroke-width: 1; stroke-dasharray: none; stroke-linecap: butt; stroke-dashoffset: 0; stroke-linejoin: miter; stroke-miterlimit: 4; fill: rgb(255,255,255); fill-rule: nonzero; opacity: 1;"  transform=" translate(-272.43, -3728.23)" d="M 260.7 3713.1 C 270 3715 279.3 3717.6 288.7 3719.2999999999997 C 295.4 3720.4999999999995 299.8 3726.8999999999996 298.59999999999997 3733.4999999999995 C 297.4 3740.0999999999995 290.99999999999994 3744.5999999999995 284.4 3743.3999999999996 C 274.79999999999995 3741.7 265.4 3739.0999999999995 255.89999999999998 3737.0999999999995 C 249.29999999999998 3735.7999999999993 244.99999999999997 3729.2999999999993 246.29999999999998 3722.6999999999994 C 247.6 3716.1 254.1 3711.8 260.7 3713.1 z" stroke-linecap="round" /></g><g transform="matrix(-0.29 -0.07 -0.08 0.32 -605.44 764.31)" id="Layer"  ><path style="stroke: none; stroke-width: 1; stroke-dasharray: none; stroke-linecap: butt; stroke-dashoffset: 0; stroke-linejoin: miter; stroke-miterlimit: 4; fill: rgb(255,199,0); fill-rule: nonzero; opacity: 1;"  transform=" translate(1647.8, -4859.4)" d="M -1647.4 4848.1 L -1782.2 4901.400000000001 L -1849.6000000000001 4921.400000000001 L -1805.6000000000001 5043.8 L -1738.2 5023.8 L -1515.4 4978.2 L -1446 4957.599999999999 L -1450.6 4769.999999999999 L -1459.3 4674.999999999999 L -1668.5 4690.899999999999 L -1659.8 4785.899999999999 L -1647.4 4848.1 z" stroke-linecap="round" /></g><g transform="matrix(-0.54 -0.14 -0.14 0.54 -600.02 732.5)" id="Layer"  ><path style="stroke: none; stroke-width: 1; stroke-dasharray: none; stroke-linecap: butt; stroke-dashoffset: 0; stroke-linejoin: miter; stroke-miterlimit: 4; fill: rgb(255,255,255); fill-rule: nonzero; opacity: 1;"  transform=" translate(671.61, -3437.52)" d="M -684.4 3425.6 C -675.4 3426.2 -666.4 3424.4 -657.4 3424.9 C -650.6 3425.2000000000003 -645.4 3431 -645.8 3437.8 C -646.0999999999999 3444.6000000000004 -651.9 3449.8 -658.6999999999999 3449.4 C -667.8 3448.9 -676.9 3450.7000000000003 -685.9999999999999 3450.1 C -692.6999999999999 3449.6 -697.8999999999999 3443.7999999999997 -697.3999999999999 3437.1 C -696.9 3430.3 -691.1 3425.2 -684.4 3425.6 z" stroke-linecap="round" /></g><g transform="matrix(-0.54 -0.14 -0.14 0.54 -609.64 756.11)" id="Layer"  ><path style="stroke: none; stroke-width: 1; stroke-dasharray: none; stroke-linecap: butt; stroke-dashoffset: 0; stroke-linejoin: miter; stroke-miterlimit: 4; fill: rgb(255,255,255); fill-rule: nonzero; opacity: 1;"  transform=" translate(665.17, -3482.81)" d="M -676.9 3467.7 C -667.6 3469.6 -658.3 3472.2 -648.9 3473.8999999999996 C -642.1999999999999 3475.0999999999995 -637.8 3481.4999999999995 -639 3488.0999999999995 C -640.2 3494.6999999999994 -646.6 3499.1999999999994 -653.2 3497.9999999999995 C -662.8000000000001 3496.2999999999997 -672.2 3493.6999999999994 -681.7 3491.6999999999994 C -688.3000000000001 3490.399999999999 -692.6 3483.899999999999 -691.3000000000001 3477.2999999999993 C -690 3470.6 -683.5 3466.3 -676.9 3467.7 z" stroke-linecap="round" /></g><g transform="matrix(0.26 0.45 -0.45 0.26 -790.81 -233.58)" id="Layer"  ><path style="stroke: none; stroke-width: 1; stroke-dasharray: none; stroke-linecap: butt; stroke-dashoffset: 0; stroke-linejoin: miter; stroke-miterlimit: 4; fill: rgb(255,199,0); fill-rule: nonzero; opacity: 1;"  transform=" translate(-1947.2, -1197.3)" d="M 2123.6 844.5 C 1928.8 844.5 1770.8 1002.4 1770.8 1197.3 C 1770.8 1392.1 1928.7 1550.1 2123.6 1550.1 L 2123.6 844.5 z" stroke-linecap="round" /></g><g transform="matrix(-0.49 -0.21 -0.24 0.57 -685.04 -406.23)" id="Layer"  ><path style="stroke: none; stroke-width: 1; stroke-dasharray: none; stroke-linecap: butt; stroke-dashoffset: 0; stroke-linejoin: miter; stroke-miterlimit: 4; fill: rgb(255,255,255); fill-rule: nonzero; opacity: 1;"  transform=" translate(259.8, -1417.56)" d="M -340.8 1352.7 C -369.8 1406.5 -352.3 1474.1000000000001 -284.6 1478.2 C -273.3 1478.9 -261.3 1475.8 -250.70000000000002 1472.2 C -225.10000000000002 1463.4 -209.20000000000002 1446.6000000000001 -197 1426.5 C -184.2 1405.2 -175.5 1380.2 -165.1 1356.2 C -163.6 1352.8 -159.2 1351.1000000000001 -155.29999999999998 1352.3 C -151.39999999999998 1353.6 -149.29999999999998 1357.3999999999999 -150.79999999999998 1360.8 C -161.39999999999998 1385.3 -170.29999999999998 1410.8 -183.39999999999998 1432.6 C -197.2 1455.6 -215.7 1474.3999999999999 -244.99999999999997 1484.5 C -257.7 1488.9 -272.09999999999997 1492.3 -285.59999999999997 1491.5 C -364 1486.7 -388.09999999999997 1409.7 -354.59999999999997 1347.3 C -352.79999999999995 1344 -348.29999999999995 1342.6 -344.49999999999994 1344.1 C -340.7 1345.5 -339.1 1349.5 -340.8 1352.7 z" stroke-linecap="round" /></g><g transform="matrix(0.79 0.34 -0.34 0.79 -726.02 -488.05)" id="Layer"  ><path style="stroke: none; stroke-width: 1; stroke-dasharray: none; stroke-linecap: butt; stroke-dashoffset: 0; stroke-linejoin: miter; stroke-miterlimit: 4; fill: rgb(255,255,255); fill-rule: nonzero; opacity: 1;"  transform=" translate(-1279.09, -735.15)" d="M 1297.7 757 C 1288.6000000000001 756.6 1278.3 755 1271.7 748.2 C 1262.4 738.7 1262 720.3000000000001 1275.5 714.7 C 1281.7 712.1 1288.4 713.7 1294.9 714.1 C 1297.5 714.3000000000001 1299.7 712.3000000000001 1299.9 709.7 C 1300.1000000000001 707.1 1298.1000000000001 704.9000000000001 1295.5 704.7 C 1287.6 704.2 1279.5 702.9000000000001 1272 706 C 1252.3 714.1 1251.5 740.8 1265 754.7 C 1273.3 763.2 1285.9 765.9000000000001 1297.4 766.3000000000001 C 1300 766.4000000000001 1302.2 764.4000000000001 1302.3000000000002 761.8000000000001 C 1302.3 759.2 1300.3 757.1 1297.7 757 z" stroke-linecap="round" /></g><g transform="matrix(0.79 0.34 -0.34 0.79 -637.69 -490.64)" id="Layer"  ><path style="stroke: none; stroke-width: 1; stroke-dasharray: none; stroke-linecap: butt; stroke-dashoffset: 0; stroke-linejoin: miter; stroke-miterlimit: 4; fill: rgb(255,255,255); fill-rule: nonzero; opacity: 1;"  transform=" translate(-1372.4, -691.75)" d="M 1279.5 689 C 1279.5 709.5 1344.4 758.8 1414.3 755.1 C 1477.3 751.8000000000001 1487.1 650 1414.3 631.9 C 1328.3 610.5 1279.5 689 1279.5 689 z" stroke-linecap="round" /></g><g transform="matrix(0.79 0.34 -0.34 0.79 -743.52 -511.12)" id="Layer"  ><path style="stroke: none; stroke-width: 1; stroke-dasharray: none; stroke-linecap: butt; stroke-dashoffset: 0; stroke-linejoin: miter; stroke-miterlimit: 4; fill: rgb(255,255,255); fill-rule: nonzero; opacity: 1;"  transform=" translate(-1250.45, -718.1)" d="M 1301.7 709.2 C 1295.3 709 1289 709.8000000000001 1282.7 711.3000000000001 C 1266.5 715.0000000000001 1254 731.0000000000001 1266.8 746.6 C 1277.3 759.5 1318.5 764.3000000000001 1303.6 789.7 C 1293.3 807.1 1268 805.2 1251.3999999999999 801.3000000000001 C 1211.8999999999999 792.1 1183.6999999999998 758.6 1177.8 720.4000000000001 C 1171.8 682.1000000000001 1204.8999999999999 642.6000000000001 1242.2 634.3000000000001 C 1274.3 627.2 1315.4 638.4000000000001 1323.8 673.5000000000001 L 1301.7 709.2 z" stroke-linecap="round" /></g><g transform="matrix(0.78 -0.22 0.22 0.78 -673.33 -198.69)" id="Layer"  ><path style="stroke: none; stroke-width: 1; stroke-dasharray: none; stroke-linecap: butt; stroke-dashoffset: 0; stroke-linejoin: miter; stroke-miterlimit: 4; fill: rgb(255,255,255); fill-rule: nonzero; opacity: 1;"  transform=" translate(-886.32, -1334.18)" d="M 1108.1 1424.9 C 1055 1439.3000000000002 993.3999999999999 1453.1000000000001 904.8 1465.1000000000001 C 866.9 1470.4 828.5999999999999 1458.5000000000002 800.5 1432.6000000000001 C 761.4 1396.6000000000001 708.1 1342.7 682.5 1295.5000000000002 C 674.3 1280.3000000000002 669 1265.9000000000003 668.2 1253.1000000000001 C 667.5 1241.2 670.8000000000001 1230.8000000000002 679.7 1222.6000000000001 C 712.9000000000001 1192.3000000000002 748.3000000000001 1199.2 780.7 1221.3000000000002 C 814.6 1244.4 845.4000000000001 1283.9 867.6 1317.3000000000002 C 893.8000000000001 1356.7000000000003 938.4 1379.9 985.7 1378.7000000000003 C 1041.5 1377.3000000000002 1106.9 1375.6000000000004 1106.9 1375.6000000000004 C 1109.6000000000001 1375.5000000000005 1111.8000000000002 1373.2000000000003 1111.8000000000002 1370.5000000000005 C 1111.7000000000003 1367.8000000000004 1109.4 1365.6000000000004 1106.7000000000003 1365.6000000000004 C 1106.7000000000003 1365.6000000000004 1041.3000000000002 1367.3000000000004 985.5000000000002 1368.7000000000003 C 941.6000000000003 1369.8000000000002 900.2000000000003 1348.3000000000002 875.9000000000002 1311.8000000000002 C 853.0000000000002 1277.4 821.2000000000002 1236.9 786.3000000000002 1213.1000000000001 C 749.9000000000002 1188.3000000000002 710.2000000000002 1181.3000000000002 673.0000000000002 1215.2 C 651.3000000000002 1235 655.3000000000002 1266 673.8000000000002 1300.2 C 699.8000000000002 1348.3 754.0000000000002 1403.2 793.8000000000002 1439.9 C 824.1000000000001 1467.8000000000002 865.4000000000002 1480.7 906.2000000000002 1474.9 C 995.4000000000002 1462.8000000000002 1057.3000000000002 1448.9 1110.7000000000003 1434.4 C 1113.4000000000003 1433.7 1114.9000000000003 1430.9 1114.2000000000003 1428.3000000000002 C 1113.4 1425.8 1110.7 1424.2 1108.1 1424.9 z" stroke-linecap="round" /></g><g transform="matrix(0.67 -0.46 0.46 0.67 -464.07 -259.06)" id="Layer"  ><path style="stroke: none; stroke-width: 1; stroke-dasharray: none; stroke-linecap: butt; stroke-dashoffset: 0; stroke-linejoin: miter; stroke-miterlimit: 4; fill: rgb(255,255,255); fill-rule: nonzero; opacity: 1;"  transform=" translate(-853.04, -1352)" d="M 798.8 1377.2 C 815.5999999999999 1351.7 841.5 1332.9 872.8 1330.1000000000001 C 879.4 1329.5000000000002 890.0999999999999 1330.8000000000002 898 1334.7 C 901.9 1336.6000000000001 905.1 1339 906.2 1342.5 C 906.8000000000001 1344.7 906.5 1347.2 905.1 1350.2 C 902.4 1356.1000000000001 897.4 1357.6000000000001 892.1 1357.7 C 885 1357.8 877.2 1355.8 870.7 1355.3 C 852.1 1353.8999999999999 834.4000000000001 1360.7 823.4000000000001 1376.2 C 821.8000000000001 1378.4 822.3000000000001 1381.6000000000001 824.6000000000001 1383.1000000000001 C 826.8000000000002 1384.7 829.9000000000001 1384.2 831.5000000000001 1381.9 C 840.4000000000001 1369.3000000000002 854.8000000000001 1364.1000000000001 869.9000000000001 1365.2 C 876.6000000000001 1365.7 884.8000000000001 1367.7 892.2 1367.6000000000001 C 901.3000000000001 1367.4 909.4000000000001 1364.4 914.1 1354.4 C 916.7 1348.8000000000002 916.9 1343.9 915.7 1339.7 C 914.5 1335.5 911.7 1332 908 1329.1000000000001 C 898.4 1321.9 881.6 1319.3000000000002 872 1320.1000000000001 C 837.5 1323.1000000000001 809 1343.6000000000001 790.5 1371.6000000000001 C 789 1373.9 789.6 1377.0000000000002 791.9 1378.5000000000002 C 794.2 1380.1 797.3 1379.5 798.8 1377.2 z" stroke-linecap="round" /></g><g transform="matrix(0.67 -0.46 0.46 0.67 -425.94 -230.45)" id="Layer"  ><path style="stroke: none; stroke-width: 1; stroke-dasharray: none; stroke-linecap: butt; stroke-dashoffset: 0; stroke-linejoin: miter; stroke-miterlimit: 4; fill: rgb(255,255,255); fill-rule: nonzero; opacity: 1;"  transform=" translate(-871.38, -1407.73)" d="M 829.9 1383.9 C 853.9 1380.3000000000002 883.1 1381.2 899.8 1400.8000000000002 C 903.9 1405.6000000000001 907.9 1410.6000000000001 908.5 1417.1000000000001 C 909.3 1425.3000000000002 904.4 1434.6000000000001 895.3 1432.3000000000002 C 892 1431.4 889.5 1428.5000000000002 887.0999999999999 1425.4 C 883.8999999999999 1421.2 880.9999999999999 1416.6000000000001 877.9999999999999 1413.5 C 870.8999999999999 1406 860.8999999999999 1402.2 851.6999999999999 1398.1 C 849.1999999999999 1397 846.1999999999999 1398.1 845.0999999999999 1400.6 C 843.9999999999999 1403.1 845.0999999999999 1406.1 847.5999999999999 1407.1999999999998 C 855.6999999999999 1410.7999999999997 864.4999999999999 1413.7999999999997 870.8 1420.3999999999999 C 874.1999999999999 1423.9999999999998 877.5 1429.6999999999998 881.4 1434.1999999999998 C 884.6999999999999 1437.9999999999998 888.5 1440.8999999999999 892.9 1442.1 C 909.1999999999999 1446.3999999999999 919.9 1431.1999999999998 918.5 1416.3999999999999 C 917.7 1407.8 912.9 1400.8999999999999 907.4 1394.6 C 888.5 1372.3999999999999 855.6 1370.1999999999998 828.4 1374.3 C 825.6999999999999 1374.7 823.8 1377.2 824.1999999999999 1380 C 824.7 1382.4 827.2 1384.3 829.9 1383.9 z" stroke-linecap="round" /></g><g transform="matrix(0.67 -0.46 0.46 0.67 -432.28 -202.84)" id="Layer"  ><path style="stroke: none; stroke-width: 1; stroke-dasharray: none; stroke-linecap: butt; stroke-dashoffset: 0; stroke-linejoin: miter; stroke-miterlimit: 4; fill: rgb(255,255,255); fill-rule: nonzero; opacity: 1;"  transform=" translate(-845.54, -1431.14)" d="M 845.6 1405.7 C 857 1417 865.3000000000001 1425.3 863.8000000000001 1442.8 C 863.6 1445.6 862.6 1449 860.8000000000001 1451.7 C 859.6 1453.5 857.9000000000001 1455.1000000000001 855.5000000000001 1454.8 C 853.7000000000002 1454.6 852.8000000000001 1452.8999999999999 851.8000000000001 1451.2 C 850.0000000000001 1448.1000000000001 848.6 1444.5 847.1 1442.2 C 841.7 1433.4 833.5 1427.2 825 1421.6000000000001 C 822.7 1420.1000000000001 819.6 1420.7 818.1 1423.0000000000002 C 816.6 1425.3000000000002 817.2 1428.4000000000003 819.5 1429.9000000000003 C 826.8 1434.7000000000003 834 1439.8000000000004 838.6 1447.4000000000003 C 840.4 1450.3000000000004 842.1 1455.0000000000002 844.6 1458.5000000000002 C 847.1 1461.9000000000003 850.3000000000001 1464.3000000000002 854.3000000000001 1464.8000000000002 C 859.5000000000001 1465.4 863.8000000000001 1463.3000000000002 867.0000000000001 1459.9 C 871.0000000000001 1455.6000000000001 873.2000000000002 1449 873.6000000000001 1443.8000000000002 C 875.3000000000002 1422.7000000000003 866.1000000000001 1412.4 852.4000000000001 1398.8000000000002 C 850.4000000000001 1396.9 847.3000000000001 1396.9 845.4000000000001 1398.8000000000002 C 843.6 1400.6 843.6 1403.7 845.6 1405.7 z" stroke-linecap="round" /></g><g transform="matrix(1 0 0 1 -682.79 338.7)" id="Layer"  ><path style="stroke: none; stroke-width: 1; stroke-dasharray: none; stroke-linecap: butt; stroke-dashoffset: 0; stroke-linejoin: miter; stroke-miterlimit: 4; fill: rgb(255,255,255); fill-rule: nonzero; opacity: 1;"  transform=" translate(-567.21, -1588.7)" d="M 691.7 1651.9 C 690.8000000000001 1643.7 687.4000000000001 1635.1000000000001 681.4000000000001 1625.8000000000002 L 543.6 1411 L 537.3000000000001 1400.2 C 536.5000000000001 1398.9 535.3000000000001 1398 533.9000000000001 1397.6000000000001 C 532.5000000000001 1397.2 530.9000000000001 1397.5000000000002 529.7 1398.3000000000002 L 494.40000000000003 1419.9 C 492.40000000000003 1421.1000000000001 491.40000000000003 1423.6000000000001 491.90000000000003 1425.9 L 522.7 1554.3000000000002 C 527.3000000000001 1573.4 530 1590.5000000000002 531 1606.5000000000002 C 532.2 1625.9000000000003 531.9 1643.1000000000001 530.1 1659.0000000000002 L 524.4 1709.6000000000001 C 528.1 1709.2 531.9 1708.8000000000002 535.6 1708.4 L 541 1660.3000000000002 C 542.9 1643.7000000000003 543.2 1625.9 541.9 1605.8000000000002 C 540.9 1589.1000000000001 538.1 1571.4 533.3 1551.7000000000003 L 503.4 1427.2000000000003 L 530.5 1410.6000000000004 L 534 1416.6000000000004 C 534 1416.7000000000003 534.1 1416.7000000000003 534.1 1416.8000000000004 L 672 1631.7000000000005 C 677.1 1639.7000000000005 679.9 1646.5000000000005 680.6 1653.1000000000006 C 681.7 1662.8000000000006 681.1 1670.4000000000005 678.7 1677.0000000000007 L 676 1684.4000000000008 C 680.3 1683.4000000000008 684.5 1682.4000000000008 688.8 1681.4000000000008 L 689 1680.7000000000007 C 692.1 1672.5 693 1663.4 691.7 1651.9 z M 799.7 1644.6 C 798.9000000000001 1619.3999999999999 791.7 1594.1 778.4000000000001 1569.3 L 657.7 1344.3 C 657.7 1344.2 657.6 1344.2 657.6 1344.1 L 624.1 1287.1 C 623.6 1286.3 623 1285.6999999999998 622.2 1285.1999999999998 L 596.3000000000001 1230.8999999999999 C 595.4000000000001 1228.8999999999999 593.4000000000001 1227.6999999999998 591.2 1227.8 L 384.80000000000007 1233.7 C 383.4000000000001 1233.7 382.1000000000001 1234.3 381.1000000000001 1235.3 C 343.30000000000007 1272.2 322.30000000000007 1311.1 342.4000000000001 1380.8 C 342.4000000000001 1381.3999999999999 342.4000000000001 1382 342.6000000000001 1382.6 L 360.9000000000001 1446.1 C 360.9000000000001 1446.1999999999998 361.0000000000001 1446.1999999999998 361.0000000000001 1446.3 L 408.7000000000001 1587.6 C 412.8000000000001 1599.8999999999999 415.4000000000001 1609.8999999999999 416.9000000000001 1619.1999999999998 C 418.9000000000001 1631.9999999999998 419.7000000000001 1642.4999999999998 419.5000000000001 1651.9999999999998 L 418.10000000000014 1714.7999999999997 L 417.90000000000015 1722.8999999999996 L 414.10000000000014 1893.2999999999997 L 411.10000000000014 1937.6999999999998 C 411.0000000000001 1939.1999999999998 411.5000000000001 1940.6 412.5000000000001 1941.6999999999998 C 413.5000000000001 1942.7999999999997 414.8000000000001 1943.4999999999998 416.3000000000001 1943.6 L 505.4000000000001 1949.6 C 505.5000000000001 1949.6 505.6000000000001 1949.6 505.80000000000007 1949.6 C 508.70000000000005 1949.6 511.1000000000001 1947.3999999999999 511.30000000000007 1944.5 L 514.3000000000001 1900.1 L 535.0000000000001 1716.6 L 535.9000000000001 1708.3999999999999 L 541.3000000000001 1660.3 C 543.2 1643.7 543.5000000000001 1625.8999999999999 542.2 1605.8 C 541.2 1589.1 538.4000000000001 1571.3999999999999 533.6 1551.7 L 503.70000000000005 1427.2 L 530.8000000000001 1410.6000000000001 L 534.3000000000001 1416.6000000000001 C 534.3000000000001 1416.7 534.4000000000001 1416.7 534.4000000000001 1416.8000000000002 L 672.3000000000001 1631.7000000000003 C 677.4000000000001 1639.7000000000003 680.2 1646.5000000000002 680.9000000000001 1653.1000000000004 C 682.0000000000001 1662.8000000000004 681.4000000000001 1670.4000000000003 679.0000000000001 1677.0000000000005 L 676.3000000000001 1684.4000000000005 L 673.1 1693.3000000000006 L 613.3 1857 L 596.4 1898.2 C 595.9 1899.5 595.9 1901.1000000000001 596.4 1902.4 C 597 1903.8000000000002 598 1904.8000000000002 599.4 1905.4 L 682 1939.2 C 683.4 1939.8 684.9 1939.8 686.2 1939.2 C 687.6 1938.6000000000001 688.6 1937.6000000000001 689.2 1936.2 L 706.1 1895 L 785.5 1720.7 C 794.2 1701.7 798.9 1680.6000000000001 799.7 1657.9 C 799.8000000000001 1655.1000000000001 799.8000000000001 1652.3000000000002 799.8000000000001 1649.4 C 799.8 1647.8 799.7 1646.2 799.7 1644.6 z M 775.4 1716.1 L 696 1890.5 C 696 1890.6 695.9 1890.6 695.9 1890.7 L 681.1 1926.9 L 608.6 1897.3000000000002 L 623.4 1861.1000000000001 C 623.4 1861.0000000000002 623.4 1861.0000000000002 623.5 1860.9 L 685.6 1690.4 L 688.9 1681.4 L 689.1 1680.7 C 692.1 1672.5 692.9 1663.3 691.7 1651.8 C 690.8000000000001 1643.6 687.4000000000001 1635 681.4000000000001 1625.7 L 543.6 1411 L 537.3000000000001 1400.2 C 536.5000000000001 1398.9 535.3000000000001 1398 533.9000000000001 1397.6000000000001 C 532.5000000000001 1397.2 530.9000000000001 1397.5000000000002 529.7 1398.3000000000002 L 494.40000000000003 1419.9 C 492.40000000000003 1421.1000000000001 491.40000000000003 1423.6000000000001 491.90000000000003 1425.9 L 522.7 1554.3000000000002 C 527.3000000000001 1573.4 530 1590.5000000000002 531 1606.5000000000002 C 532.2 1625.9000000000003 531.9 1643.1000000000001 530.1 1659.0000000000002 L 524.4 1709.6000000000001 L 523.5 1717.7 L 503.1 1899 C 503.1 1899.1 503.1 1899.2 503.1 1899.2 L 500.5 1938.2 L 422.4 1933 L 425 1893.9 C 425 1893.8000000000002 425 1893.7 425 1893.7 L 428.8 1722.9 L 429 1714.8000000000002 L 430.4 1652.2000000000003 C 430.59999999999997 1642.0000000000002 429.79999999999995 1630.9000000000003 427.7 1617.4000000000003 C 426.2 1607.5000000000002 423.5 1596.8000000000004 419.09999999999997 1584.0000000000002 L 371.49999999999994 1442.8000000000002 L 354.09999999999997 1382.4 C 354.2 1382 354.29999999999995 1381.6000000000001 354.4 1381.1000000000001 C 354.5 1379.4 353.9 1377.8000000000002 352.79999999999995 1376.7 C 334.79999999999995 1313.5 352.59999999999997 1278.9 387.29999999999995 1244.5 L 588 1238.7 L 613.7 1292.5 C 614.2 1293.6 615.1 1294.5 616.2 1295 L 648.1 1349.3 L 768.7 1574.3 C 781.2 1597.6 787.9000000000001 1621.3 788.7 1644.8 C 788.8000000000001 1647.5 788.8000000000001 1650.2 788.8000000000001 1652.8999999999999 C 788.8000000000001 1655.8 788.7 1658.6 788.5000000000001 1661.3999999999999 C 787.4 1681.2 783 1699.5 775.4 1716.1 z M 691.7 1651.9 C 690.8000000000001 1643.7 687.4000000000001 1635.1000000000001 681.4000000000001 1625.8000000000002 L 543.6 1411 L 537.3000000000001 1400.2 C 536.5000000000001 1398.9 535.3000000000001 1398 533.9000000000001 1397.6000000000001 C 532.5000000000001 1397.2 530.9000000000001 1397.5000000000002 529.7 1398.3000000000002 L 494.40000000000003 1419.9 C 492.40000000000003 1421.1000000000001 491.40000000000003 1423.6000000000001 491.90000000000003 1425.9 L 522.7 1554.3000000000002 C 527.3000000000001 1573.4 530 1590.5000000000002 531 1606.5000000000002 C 532.2 1625.9000000000003 531.9 1643.1000000000001 530.1 1659.0000000000002 L 524.4 1709.6000000000001 C 528.1 1709.2 531.9 1708.8000000000002 535.6 1708.4 L 541 1660.3000000000002 C 542.9 1643.7000000000003 543.2 1625.9 541.9 1605.8000000000002 C 540.9 1589.1000000000001 538.1 1571.4 533.3 1551.7000000000003 L 503.4 1427.2000000000003 L 530.5 1410.6000000000004 L 534 1416.6000000000004 C 534 1416.7000000000003 534.1 1416.7000000000003 534.1 1416.8000000000004 L 672 1631.7000000000005 C 677.1 1639.7000000000005 679.9 1646.5000000000005 680.6 1653.1000000000006 C 681.7 1662.8000000000006 681.1 1670.4000000000005 678.7 1677.0000000000007 L 676 1684.4000000000008 C 680.3 1683.4000000000008 684.5 1682.4000000000008 688.8 1681.4000000000008 L 689 1680.7000000000007 C 692.1 1672.5 693 1663.4 691.7 1651.9 z" stroke-linecap="round" /></g><g transform="matrix(-0.92 -0.39 -0.39 0.92 -784.33 -435.44)" id="Layer"  ><path style="stroke: none; stroke-width: 1; stroke-dasharray: none; stroke-linecap: butt; stroke-dashoffset: 0; stroke-linejoin: miter; stroke-miterlimit: 4; fill: rgb(255,255,255); fill-rule: nonzero; opacity: 1;"  transform=" translate(-1334.73, -663.4)" d="M 1284.4 623.4 C 1266.7 643.6999999999999 1270.3000000000002 677.5 1285.6000000000001 698.4 C 1293.8000000000002 709.6 1309.8000000000002 721 1324.2 714.1 C 1337.1000000000001 708 1333.2 684.7 1329.9 674.5 C 1329 671.7 1327.8000000000002 667.5 1325.6000000000001 665.4 C 1324.8000000000002 664.6999999999999 1326.9 667.1 1327.6000000000001 667.9 C 1328.4 668.8 1329.1000000000001 669.8 1329.9 670.6999999999999 C 1331.9 673.0999999999999 1333.3000000000002 674.4999999999999 1335.7 676.5999999999999 C 1342.5 682.4999999999999 1353.6000000000001 688.3 1362.8 684.9999999999999 C 1372.7 681.4999999999999 1372.3999999999999 671.4999999999999 1368 663.5999999999999 C 1366.4 660.8 1364.5 657.9999999999999 1362.4 655.5999999999999 C 1361.4 654.3999999999999 1360.7 653.8 1359.5 652.9999999999999 C 1359 652.5999999999999 1357.2 652.0999999999999 1357.8 651.9999999999999 C 1370.3999999999999 649.6999999999999 1393.3999999999999 658.3999999999999 1396.7 638.5999999999999 C 1398.4 628.3 1389 619.6999999999999 1380.5 616.0999999999999 C 1372.2 612.6999999999999 1362.7 612.0999999999999 1353.9 611.4999999999999 C 1344.6000000000001 610.7999999999998 1334.8000000000002 609.7999999999998 1325.6000000000001 611.6999999999999 L 1284.4 623.4 z" stroke-linecap="round" /></g><g transform="matrix(-0.92 -0.39 -0.39 0.92 -614.44 -385.83)" id="Layer"  ><path style="stroke: none; stroke-width: 1; stroke-dasharray: none; stroke-linecap: butt; stroke-dashoffset: 0; stroke-linejoin: miter; stroke-miterlimit: 4; fill: rgb(255,255,255); fill-rule: nonzero; opacity: 1;"  transform=" translate(-1159, -642.24)" d="M 1181.2 600.8 C 1170.1000000000001 597.9 1157.3 599.5 1146.6000000000001 603.0999999999999 C 1141.0000000000002 604.9999999999999 1134.6000000000001 608.5999999999999 1133.2 614.8999999999999 C 1129.9 630.0999999999999 1153.7 632.3999999999999 1163.5 630.3999999999999 C 1164.9 630.0999999999999 1161 631.3999999999999 1159.7 631.8999999999999 C 1156.4 633.1999999999998 1155.1000000000001 633.5999999999999 1151.8 634.8999999999999 C 1143.3 638.3999999999999 1130.3999999999999 645.7999999999998 1133.2 657.2999999999998 C 1135.3 665.3999999999999 1148.3 663.1999999999998 1154 661.5999999999998 C 1156.3 660.8999999999997 1158.6 660.0999999999998 1160.8 659.0999999999998 C 1161.5 658.7999999999998 1162.8999999999999 657.3999999999997 1162.7 658.0999999999998 C 1162.4 659.3999999999997 1159.3 662.6999999999998 1158.6000000000001 663.7999999999998 C 1155.6000000000001 668.2999999999998 1153.0000000000002 674.4999999999999 1154.3000000000002 680.0999999999998 C 1155.5000000000002 685.2999999999998 1160.3000000000002 685.8999999999997 1164.9 684.5999999999998 C 1170.6000000000001 682.9999999999998 1177.2 676.0999999999998 1179.5 670.3999999999997 C 1180.7 667.3999999999997 1179.1 663.3999999999997 1178.5 660.4999999999998 C 1177.6 656.0999999999998 1177.6 651.6999999999998 1177.4 647.1999999999998 C 1176.8000000000002 632.3999999999999 1179 615.4999999999998 1185.2 601.8999999999999 L 1181.2 600.8 z" stroke-linecap="round" /></g><g transform="matrix(-0.76 0.65 0.65 0.76 -424.45 -154.99)" id="Layer"  ><path style="stroke: none; stroke-width: 1; stroke-dasharray: none; stroke-linecap: butt; stroke-dashoffset: 0; stroke-linejoin: miter; stroke-miterlimit: 4; fill: rgb(255,255,255); fill-rule: nonzero; opacity: 1;"  transform=" translate(-1783.2, -1220.98)" d="M 1817.6 1197.8 C 1792.6 1221.3 1767.1999999999998 1242.8 1753.6 1250.5 C 1751.6999999999998 1251.6 1749.1999999999998 1250.9 1748.1 1249 C 1747 1247.1 1747.6999999999998 1244.6 1749.6 1243.5 C 1762.8 1236 1787.6 1214.9 1812 1192 C 1813.6 1190.5 1816.2 1190.6 1817.7 1192.2 C 1819.2 1193.8000000000002 1819.2 1196.3 1817.6 1197.8 z" stroke-linecap="round" /></g><g transform="matrix(-0.69 0.84 0.61 0.5 -387.41 -143.67)" id="Layer"  ><path style="stroke: none; stroke-width: 1; stroke-dasharray: none; stroke-linecap: butt; stroke-dashoffset: 0; stroke-linejoin: miter; stroke-miterlimit: 4; fill: rgb(255,255,255); fill-rule: nonzero; opacity: 1;"  transform=" translate(-1912.72, -1408.15)" d="M 1889.2 1521.6 C 1889.5 1521.1999999999998 1891.1000000000001 1519.3 1892.7 1517.6999999999998 C 1898.7 1511.6 1910.2 1500.6999999999998 1924.7 1486.1999999999998 C 1953.9 1456.9999999999998 1995 1413.1 2027 1363.4999999999998 C 2048.6 1329.9999999999998 2066.1 1293.7999999999997 2073.2 1257.6999999999998 C 2073.7 1254.9999999999998 2072.6 1252.1999999999998 2070.6 1251.3999999999999 C 2068.6 1250.6999999999998 2066.6 1252.3 2066.1 1254.9999999999998 C 2059.2999999999997 1289.6999999999998 2042.3999999999999 1324.3999999999999 2021.6 1356.6999999999998 C 1990 1405.6999999999998 1949.3 1448.9999999999998 1920.5 1477.8999999999999 C 1903.9 1494.4999999999998 1891.1 1506.3999999999999 1886.1 1511.8999999999999 C 1884.3 1513.8999999999999 1883.3 1515.6 1883 1516.3999999999999 C 1872.6 1543.6999999999998 1853 1555.8 1832.5 1554.8 C 1801.1 1553.2 1767.5 1521.1 1759.4 1464.3999999999999 C 1759 1461.6 1757.1000000000001 1459.8 1755.1000000000001 1460.3999999999999 C 1753.1000000000001 1460.8999999999999 1751.8000000000002 1463.6 1752.2 1466.3999999999999 C 1761 1528.3999999999999 1797.9 1563.3 1832.3 1564.9999999999998 C 1855.3 1566.2 1877.4 1552.3 1889.2 1521.6 z" stroke-linecap="round" /></g><g transform="matrix(-0.68 0 0 0.28 -815 -72.26)" id="Layer"  ><path style="stroke: none; stroke-width: 1; stroke-dasharray: none; stroke-linecap: butt; stroke-dashoffset: 0; stroke-linejoin: miter; stroke-miterlimit: 4; fill: rgb(255,255,255); fill-rule: nonzero; opacity: 1;"  transform=" translate(-1443.43, -3219.14)" d="M 1400.6 3284.6 C 1400.3 3277.6 1400 3270.7 1399.8999999999999 3263.7 C 1399.3999999999999 3237.3999999999996 1399.4999999999998 3211.1 1398.8999999999999 3184.8999999999996 C 1398.4999999999998 3166.5999999999995 1397.6 3148.3999999999996 1398.8999999999999 3130.0999999999995 C 1399.3999999999999 3122.3999999999996 1397.3 3114.9999999999995 1393.9999999999998 3113.6999999999994 C 1390.7999999999997 3112.399999999999 1387.6999999999998 3117.5999999999995 1387.0999999999997 3125.2999999999993 C 1385.6999999999996 3145.6999999999994 1386.4999999999998 3165.999999999999 1386.8999999999996 3186.399999999999 C 1387.4999999999995 3212.599999999999 1387.3999999999996 3238.7999999999993 1387.8999999999996 3264.899999999999 C 1387.9999999999995 3273.399999999999 1388.3999999999996 3281.899999999999 1388.7999999999997 3290.2999999999993 C 1388.8999999999996 3293.499999999999 1388.8999999999996 3293.999999999999 1388.8999999999996 3295.999999999999 C 1388.5999999999997 3297.899999999999 1388.2999999999997 3300.199999999999 1388.2999999999997 3301.399999999999 C 1388.1999999999998 3305.099999999999 1388.5999999999997 3308.1999999999994 1389.3999999999996 3310.6999999999994 C 1390.1999999999996 3313.4999999999995 1391.7999999999997 3317.7999999999993 1395.4999999999995 3316.9999999999995 C 1403.4999999999995 3315.1999999999994 1414.3999999999996 3298.9999999999995 1419.4999999999995 3292.9999999999995 C 1436.8999999999996 3272.4999999999995 1452.8999999999996 3250.4999999999995 1468.9999999999995 3229.0999999999995 C 1473.5999999999995 3222.9999999999995 1478.4999999999995 3217.1999999999994 1483.0999999999995 3211.0999999999995 C 1483.8999999999994 3218.1999999999994 1483.8999999999994 3225.3999999999996 1484.1999999999994 3232.5999999999995 C 1484.5999999999995 3244.1999999999994 1484.7999999999993 3255.8999999999996 1485.4999999999993 3267.4999999999995 C 1486.3999999999994 3282.3999999999996 1487.9999999999993 3297.1999999999994 1488.5999999999992 3311.9999999999995 C 1488.8999999999992 3319.7999999999997 1491.8999999999992 3325.4999999999995 1495.1999999999991 3324.6999999999994 C 1498.499999999999 3323.899999999999 1500.8999999999992 3316.899999999999 1500.499999999999 3309.0999999999995 C 1499.799999999999 3293.8999999999996 1498.1999999999991 3278.6999999999994 1497.3999999999992 3263.5999999999995 C 1496.6999999999991 3252.4999999999995 1496.5999999999992 3241.3999999999996 1496.1999999999991 3230.1999999999994 C 1495.6999999999991 3216.899999999999 1495.499999999999 3203.5999999999995 1492.5999999999992 3190.5999999999995 C 1492.0999999999992 3187.0999999999995 1491.1999999999991 3181.9999999999995 1489.9999999999993 3180.0999999999995 C 1488.9999999999993 3178.3999999999996 1487.4999999999993 3176.7999999999993 1485.0999999999992 3177.2999999999993 C 1484.1999999999991 3177.499999999999 1482.6999999999991 3178.499999999999 1481.1999999999991 3180.499999999999 C 1479.8999999999992 3182.199999999999 1477.6999999999991 3185.699999999999 1477.3999999999992 3186.199999999999 C 1472.7999999999993 3192.3999999999987 1467.7999999999993 3198.199999999999 1463.1999999999991 3204.299999999999 C 1447.299999999999 3225.4999999999986 1431.3999999999992 3247.299999999999 1414.1999999999991 3267.599999999999 C 1411.2 3271 1405.8 3279.4 1400.6 3284.6 z M 1492.5 3190.8 C 1492.7 3192.1000000000004 1492.9 3194.1000000000004 1492.9 3194.1000000000004 C 1492.9 3194.1000000000004 1492.8 3192.7 1492.5 3190.8 z" stroke-linecap="round" /></g><g transform="matrix(1 0 0 1 -273.49 -222.6)" id="Layer"  ><path style="stroke: none; stroke-width: 1; stroke-dasharray: none; stroke-linecap: butt; stroke-dashoffset: 0; stroke-linejoin: miter; stroke-miterlimit: 4; fill: rgb(255,255,255); fill-rule: nonzero; opacity: 1;"  transform=" translate(-966.99, -1055.56)" d="M 963.6 1033.3 C 961.7 1030 959.8000000000001 1026.3 958.6 1022.6999999999999 C 957 1017.4 956.9 1012.3 959.4 1008.0999999999999 C 961.1999999999999 1004.9999999999999 963.5 1003.3999999999999 965.9 1002.6999999999999 C 968.1999999999999 1001.9999999999999 970.8 1002.1999999999999 973.3 1003.0999999999999 C 979.0999999999999 1005.0999999999999 985.1999999999999 1011.0999999999999 988.0999999999999 1014.3 C 989.5999999999999 1015.9 994.8 1022.1999999999999 996.4999999999999 1023.5999999999999 C 998.1999999999999 1025 998.4999999999999 1027.5 997.0999999999999 1029.3 C 995.6999999999999 1031 993.1999999999999 1031.3 991.3999999999999 1029.8999999999999 C 989.4999999999999 1028.3999999999999 983.6999999999998 1021.4999999999999 982.0999999999999 1019.7999999999998 C 980.0999999999999 1017.5999999999998 976.3999999999999 1013.7999999999998 972.5999999999999 1011.5999999999998 C 971.0999999999999 1010.7999999999998 969.4999999999999 1009.9999999999998 968.1999999999999 1010.4999999999998 C 967.4999999999999 1010.6999999999998 966.9 1011.2999999999997 966.3 1012.2999999999997 C 964.9 1014.5999999999997 965.4 1017.3999999999997 966.3 1020.2999999999997 C 968.0999999999999 1025.9999999999998 972 1031.6999999999998 974.4 1035.1999999999998 C 975.9 1037.3999999999999 977.6 1039.3999999999999 979.1 1041.6 C 979.6 1042.3 980.8000000000001 1043.3999999999999 981.3000000000001 1044.1 C 981.9000000000001 1045 982.2 1045.8999999999999 982.2 1046.6 C 982.3000000000001 1047.6999999999998 982 1048.6 981.4000000000001 1049.3999999999999 C 980.9000000000001 1050.1 980.0000000000001 1050.8999999999999 978.4000000000001 1051.1999999999998 C 977.7 1051.2999999999997 976.4000000000001 1051.1999999999998 974.9000000000001 1050.2999999999997 C 973.4000000000001 1049.3999999999996 970.8000000000001 1046.8999999999996 970.2 1046.3999999999996 C 967 1043.9999999999995 963.9000000000001 1041.3999999999996 960 1040.7999999999997 C 956.9 1040.2999999999997 954.7 1040.2999999999997 953.6 1041.7999999999997 C 952.5 1043.2999999999997 952.9 1045.5999999999997 954.1 1048.3999999999996 C 956.3000000000001 1053.7999999999997 960.2 1057.8999999999996 964.2 1061.8999999999996 C 968.8000000000001 1066.4999999999995 973.7 1070.8999999999996 977.2 1076.3999999999996 C 978.3000000000001 1078.0999999999997 977.9000000000001 1079.2999999999997 977.7 1079.8999999999996 C 977.2 1081.3999999999996 976.1 1082.7999999999997 973.7 1082.6999999999996 C 973.4000000000001 1082.6999999999996 972.9000000000001 1082.5999999999997 972.4000000000001 1082.4999999999995 C 972.1000000000001 1082.3999999999996 971.0000000000001 1081.7999999999995 970.8000000000001 1081.6999999999996 C 970.1 1081.3999999999996 969.4000000000001 1081.0999999999997 968.7 1080.6999999999996 C 966.6 1079.6999999999996 964.5 1078.6999999999996 962.3000000000001 1077.8999999999996 C 959.4000000000001 1076.7999999999997 954.9000000000001 1075.5999999999997 950.8000000000001 1075.6999999999996 C 947.9000000000001 1075.6999999999996 945.1 1076.2999999999995 944.0000000000001 1079.0999999999997 C 943.8000000000001 1079.6999999999996 943.9000000000001 1080.3999999999996 944.1000000000001 1080.9999999999998 C 944.5000000000001 1082.1999999999998 945.1000000000001 1083.2999999999997 945.7000000000002 1084.2999999999997 C 949.1000000000001 1090.1999999999998 956.1000000000001 1094.3999999999996 961.9000000000002 1097.5999999999997 C 964.4000000000002 1098.9999999999998 967.0000000000002 1100.1999999999996 969.8000000000002 1100.8999999999996 C 972.0000000000002 1101.4999999999995 973.3000000000002 1103.6999999999996 972.7000000000002 1105.7999999999997 C 972.1000000000001 1107.9999999999998 969.9000000000002 1109.2999999999997 967.8000000000002 1108.6999999999998 C 964.3000000000002 1107.7999999999997 961.1000000000001 1106.2999999999997 958.0000000000002 1104.6 C 951.1000000000003 1100.6999999999998 942.9000000000002 1095.3999999999999 938.8000000000002 1088.3 C 936.8000000000002 1084.8 935.0000000000002 1080.3 936.6000000000001 1076.1 C 938.5000000000001 1071.1 942.6000000000001 1068.6 947.6000000000001 1067.8 C 951.5000000000001 1067.2 955.9000000000001 1067.7 959.8000000000002 1068.6 L 958.7000000000002 1067.5 C 953.9000000000002 1062.7 949.4000000000002 1057.7 946.8000000000002 1051.3 C 944.3000000000002 1045 944.9000000000002 1039.8999999999999 947.4000000000002 1036.7 C 949.9000000000002 1033.4 954.7000000000002 1031.5 961.6000000000003 1032.7 C 962.2 1032.9 962.9 1033.1 963.6 1033.3 z" stroke-linecap="round" /></g><g transform="matrix(0.26 0.97 -0.97 0.26 -272.06 577.06)" id="Layer"  ><path style="stroke: none; stroke-width: 1; stroke-dasharray: none; stroke-linecap: butt; stroke-dashoffset: 0; stroke-linejoin: miter; stroke-miterlimit: 4; fill: rgb(255,199,0); fill-rule: nonzero; opacity: 1;"  transform=" translate(-2681.75, -16.85)" d="M 2681.8 -33.5 L 2732.1000000000004 67.2 L 2631.4000000000005 67.2 L 2681.8 -33.5 z" stroke-linecap="round" /></g><g transform="matrix(-0.87 0.5 -0.5 -0.87 -1066.38 165.64)" id="Layer"  ><path style="stroke: none; stroke-width: 1; stroke-dasharray: none; stroke-linecap: butt; stroke-dashoffset: 0; stroke-linejoin: miter; stroke-miterlimit: 4; fill: rgb(255,255,255); fill-rule: nonzero; opacity: 1;"  transform=" translate(-1818.25, 658.15)" d="M 1818.3 -708.5 L 1868.6 -607.8 L 1767.8999999999999 -607.8 L 1818.3 -708.5 z" stroke-linecap="round" /></g><g transform="matrix(1 0 0 1 -681.36 250.96)" id="Layer"  ><path style="stroke: none; stroke-width: 1; stroke-dasharray: none; stroke-linecap: butt; stroke-dashoffset: 0; stroke-linejoin: miter; stroke-miterlimit: 4; fill: rgb(255,255,255); fill-rule: nonzero; opacity: 1;"  transform=" translate(-568.64, -1500.96)" d="M 418 1714.9 C 381.6 1714.7 346.7 1712.2 314.3 1707.1000000000001 C 282.7 1702.1000000000001 253.20000000000002 1693.0000000000002 228 1680.1000000000001 C 244.9 1663.2 258.3 1644.5000000000002 267.3 1624.4 C 274.8 1607.9 280.40000000000003 1583.8000000000002 278.2 1561.2 C 276.7 1545.8 271.59999999999997 1531.1000000000001 261.09999999999997 1519.8 C 249.99999999999997 1507.7 232.69999999999996 1499.3999999999999 207.09999999999997 1498.6 C 186.89999999999998 1497.8999999999999 172.09999999999997 1503.5 161.39999999999998 1512.5 C 136.7 1533.2 134.39999999999998 1572.3 141.2 1596 C 151.29999999999998 1631.5 178 1660.7 214.6 1681.8 C 170.2 1722.6 104.8 1751.8 34.400000000000006 1763.5 C 32.2 1763.9 30.700000000000006 1766 31.100000000000005 1768.2 C 31.500000000000004 1770.4 33.60000000000001 1771.9 35.7 1771.5 C 108.8 1759.3 176.39999999999998 1728.6 222 1685.9 C 248.4 1699.8000000000002 279.5 1709.8000000000002 313.1 1715 C 345.90000000000003 1720.1 381.1 1722.7 417.90000000000003 1722.9 C 421.50000000000006 1722.9 425.20000000000005 1722.9 428.90000000000003 1722.9 L 429.1 1714.8000000000002 C 425.3 1714.9 421.7 1714.9 418 1714.9 z M 220.6 1676.2 C 184.8 1656.2 158.7 1628.2 148.89999999999998 1593.9 C 140.29999999999998 1563.7 147.39999999999998 1504.9 206.79999999999998 1506.8000000000002 C 229.7 1507.6000000000001 245.2 1514.6000000000001 255.09999999999997 1525.4 C 264.4 1535.4 268.7 1548.5 270.09999999999997 1562.1000000000001 C 272.2 1583.2 266.9 1605.7 259.9 1621.2 C 251 1641 237.5 1659.5 220.6 1676.2 z M 1104.3 1359.7 C 1096.3999999999999 1312.4 1064.2 1267.1000000000001 1001.6999999999999 1230.9 C 999.8 1229.8000000000002 997.3 1230.4 996.1999999999999 1232.4 C 995.0999999999999 1234.3000000000002 995.6999999999999 1236.8000000000002 997.6999999999999 1237.9 C 1057.6 1272.6000000000001 1088.8 1315.8000000000002 1096.3999999999999 1361 C 1107.8 1429.1 1065.8 1501.5 989.8999999999999 1556.6 C 941.5999999999999 1591.6999999999998 874.9999999999999 1623.5 799.7999999999998 1649.3 C 796.1999999999998 1650.5 792.4999999999999 1651.8 788.7999999999998 1653 C 788.7999999999998 1655.9 788.6999999999998 1658.7 788.4999999999999 1661.5 C 792.2999999999998 1660.3 795.9999999999999 1659 799.6999999999999 1657.8 C 876.9 1631.6 945.3 1599 994.6999999999999 1563.2 C 1073.4 1506.1 1116.1 1430.4 1104.3 1359.7 z M 535.7 1708.4 C 532 1708.8000000000002 528.2 1709.2 524.5 1709.6000000000001 L 523.6 1717.7 C 527.3000000000001 1717.3 531.1 1716.9 534.8000000000001 1716.5 C 580.8000000000001 1711.4 627.3000000000001 1703.5 672.9000000000001 1693.3 C 677.2 1692.3 681.4000000000001 1691.3999999999999 685.7 1690.3999999999999 L 689 1681.3999999999999 C 684.8 1682.3999999999999 680.5 1683.3999999999999 676.2 1684.3999999999999 C 629.8 1695 582.4 1703.2 535.7 1708.4 z" stroke-linecap="round" /></g><g transform="matrix(1 0 0 1 -946.05 -692.65)" id="Layer"  ><path style="stroke: none; stroke-width: 1; stroke-dasharray: none; stroke-linecap: butt; stroke-dashoffset: 0; stroke-linejoin: miter; stroke-miterlimit: 4; fill: rgb(255,255,255); fill-rule: nonzero; opacity: 1;"  transform=" translate(-303.95, -557.35)" d="M 304 484.6 L 304 515.2 L 304 484.6 z M 244.1 513.4 L 268 532.5 L 244.1 513.4 z M 229.3 578.2 L 259.2 571.4000000000001 L 229.3 578.2 z M 270.7 630.1 L 284 602.5 L 270.7 630.1 z M 337.2 630.1 L 323.9 602.5 L 337.2 630.1 z M 378.6 578.2 L 348.70000000000005 571.4000000000001 L 378.6 578.2 z M 363.8 513.4 L 339.90000000000003 532.5 L 363.8 513.4 z" stroke-linecap="round" /></g><g transform="matrix(1 0 0 1 -946.05 -692.63)" id="Layer"  ><path style="stroke: none; stroke-width: 1; stroke-dasharray: none; stroke-linecap: butt; stroke-dashoffset: 0; stroke-linejoin: miter; stroke-miterlimit: 4; fill: rgb(255,255,255); fill-rule: nonzero; opacity: 1;"  transform=" translate(-303.95, -557.37)" d="M 273.2 631.3 L 286.5 603.6999999999999 C 287.1 602.4 286.6 600.6999999999999 285.2 600.0999999999999 C 283.9 599.4999999999999 282.2 599.9999999999999 281.59999999999997 601.3999999999999 L 268.3 629 C 267.7 630.3 268.2 632 269.6 632.6 C 270.9 633.2 272.5 632.7 273.2 631.3 L 273.2 631.3 z M 339.6 629 L 326.3 601.4 C 325.7 600.1 324 599.5 322.7 600.1 C 321.4 600.7 320.8 602.4 321.4 603.7 L 334.7 631.3000000000001 C 335.3 632.6 337 633.2 338.3 632.6 C 339.7 631.9 340.3 630.3 339.6 629 L 339.6 629 z M 379.2 575.6 L 349.3 568.8000000000001 C 347.8 568.5000000000001 346.40000000000003 569.4000000000001 346.1 570.8000000000001 C 345.8 572.3000000000001 346.70000000000005 573.7 348.1 574.0000000000001 L 378 580.8000000000001 C 379.5 581.1 380.9 580.2 381.2 578.8000000000001 C 381.6 577.3 380.7 575.9 379.2 575.6 L 379.2 575.6 z M 229.9 580.8 L 259.8 574 C 261.3 573.7 262.2 572.2 261.8 570.8 C 261.5 569.3 260 568.4 258.6 568.8 L 228.70000000000002 575.5999999999999 C 227.20000000000002 575.8999999999999 226.3 577.3999999999999 226.70000000000002 578.8 C 227 580.3 228.5 581.2 229.9 580.8 L 229.9 580.8 z M 242.4 515.5 L 266.3 534.6 C 267.5 535.5 269.2 535.3000000000001 270.1 534.2 C 271 533 270.8 531.3000000000001 269.70000000000005 530.4000000000001 L 245.80000000000004 511.30000000000007 C 244.60000000000005 510.4000000000001 242.90000000000003 510.6000000000001 242.00000000000003 511.70000000000005 C 241.1 512.9 241.2 514.6 242.4 515.5 L 242.4 515.5 z M 362.1 511.3 L 338.20000000000005 530.4 C 337.00000000000006 531.3 336.80000000000007 533 337.80000000000007 534.1999999999999 C 338.70000000000005 535.4 340.4000000000001 535.5999999999999 341.6000000000001 534.5999999999999 L 365.50000000000006 515.4999999999999 C 366.70000000000005 514.5999999999999 366.90000000000003 512.8999999999999 365.90000000000003 511.6999999999999 C 365 510.6 363.3 510.4 362.1 511.3 L 362.1 511.3 z M 301.3 484.6 L 301.3 515.2 C 301.3 516.7 302.5 517.9000000000001 304 517.9000000000001 C 305.5 517.9000000000001 306.7 516.7 306.7 515.2 L 306.7 484.6 C 306.7 483.1 305.5 481.90000000000003 304 481.90000000000003 C 302.5 481.9 301.3 483.1 301.3 484.6 L 301.3 484.6 z" stroke-linecap="round" /></g><g transform="matrix(1 0 0 1 880.55 -581.7)" id="Layer"  ><path style="stroke: none; stroke-width: 1; stroke-dasharray: none; stroke-linecap: butt; stroke-dashoffset: 0; stroke-linejoin: miter; stroke-miterlimit: 4; fill: rgb(255,255,255); fill-rule: nonzero; opacity: 1;"  transform=" translate(-2130.55, -668.3)" d="M 2130.6 595.5 L 2130.6 626.1 L 2130.6 595.5 z M 2070.7 624.4 L 2094.6 643.5 L 2070.7 624.4 z M 2055.9 689.1 L 2085.8 682.3000000000001 L 2055.9 689.1 z M 2097.3 741.1 L 2110.6000000000004 713.5 L 2097.3 741.1 z M 2163.8 741.1 L 2150.5 713.5 L 2163.8 741.1 z M 2205.2 689.1 L 2175.2999999999997 682.3000000000001 L 2205.2 689.1 z M 2190.4 624.4 L 2166.5 643.5 L 2190.4 624.4 z" stroke-linecap="round" /></g><g transform="matrix(1 0 0 1 880.55 -581.68)" id="Layer"  ><path style="stroke: none; stroke-width: 1; stroke-dasharray: none; stroke-linecap: butt; stroke-dashoffset: 0; stroke-linejoin: miter; stroke-miterlimit: 4; fill: rgb(255,255,255); fill-rule: nonzero; opacity: 1;"  transform=" translate(-2130.55, -668.32)" d="M 2099.8 742.3 L 2113.1000000000004 714.6999999999999 C 2113.7000000000003 713.4 2113.2000000000003 711.6999999999999 2111.8 711.0999999999999 C 2110.5 710.4999999999999 2108.8 710.9999999999999 2108.2000000000003 712.3999999999999 L 2094.9 739.9999999999999 C 2094.3 741.2999999999998 2094.8 742.9999999999999 2096.2000000000003 743.5999999999999 C 2097.5 744.2 2099.1 743.6 2099.8 742.3 L 2099.8 742.3 z M 2166.2 739.9 L 2152.8999999999996 712.3 C 2152.2999999999997 711 2150.5999999999995 710.4 2149.2999999999997 711 C 2147.9999999999995 711.6 2147.3999999999996 713.3 2147.9999999999995 714.6 L 2161.2999999999997 742.2 C 2161.8999999999996 743.5 2163.6 744.1 2164.8999999999996 743.5 C 2166.3 742.9 2166.9 741.3 2166.2 739.9 L 2166.2 739.9 z M 2205.8 686.5 L 2175.9 679.7 C 2174.4 679.4000000000001 2173 680.3000000000001 2172.7000000000003 681.7 C 2172.4 683.2 2173.3 684.6 2174.7000000000003 684.9000000000001 L 2204.6000000000004 691.7 C 2206.1000000000004 692 2207.5000000000005 691.1 2207.8 689.7 C 2208.2 688.3 2207.3 686.8 2205.8 686.5 L 2205.8 686.5 z M 2056.5 691.8 L 2086.4 685 C 2087.9 684.7 2088.8 683.2 2088.4 681.8 C 2088.1 680.3 2086.6 679.4 2085.2000000000003 679.8 L 2055.3 686.5999999999999 C 2053.8 686.8999999999999 2052.9 688.3999999999999 2053.3 689.8 C 2053.6 691.2 2055 692.1 2056.5 691.8 L 2056.5 691.8 z M 2069 626.5 L 2092.9 645.6 C 2094.1 646.5 2095.8 646.3000000000001 2096.7000000000003 645.2 C 2097.6000000000004 644 2097.4 642.3000000000001 2096.3 641.4000000000001 L 2072.4 622.3000000000001 C 2071.2000000000003 621.4000000000001 2069.5 621.6 2068.6 622.7 C 2067.6 623.8 2067.8 625.5 2069 626.5 L 2069 626.5 z M 2188.7 622.2 L 2164.7999999999997 641.3000000000001 C 2163.6 642.2 2163.3999999999996 643.9000000000001 2164.3999999999996 645.1 C 2165.2999999999997 646.3000000000001 2166.9999999999995 646.5 2168.2 645.5 L 2192.1 626.4 C 2193.2999999999997 625.5 2193.5 623.8 2192.5 622.6 C 2191.6 621.5 2189.9 621.3 2188.7 622.2 L 2188.7 622.2 z M 2127.9 595.5 L 2127.9 626.1 C 2127.9 627.6 2129.1 628.8000000000001 2130.6 628.8000000000001 C 2132.1 628.8000000000001 2133.2999999999997 627.6 2133.2999999999997 626.1 L 2133.2999999999997 595.5 C 2133.2999999999997 594 2132.1 592.8 2130.6 592.8 C 2129.1 592.8 2127.9 594 2127.9 595.5 L 2127.9 595.5 z" stroke-linecap="round" /></g></g></g></svg>